<?xml version="1.0" standalone="no"?>
<!DOCTYPE svg PUBLIC "-//W3C//DTD SVG 20010904//EN"
 "http://www.w3.org/TR/2001/REC-SVG-20010904/DTD/svg10.dtd">
<svg version="1.0" xmlns="http://www.w3.org/2000/svg"
 width="2048.000000pt" height="1536.000000pt" viewBox="0 0 2048.000000 1536.000000"
 preserveAspectRatio="xMidYMid meet">

<g transform="translate(0.000000,1536.000000) scale(0.100000,-0.100000)"
fill="#000000" stroke="none">
<path d="M10436 13395 c-3 -9 -6 -36 -6 -60 0 -46 9 -55 61 -55 33 0 42 22 37
86 -3 38 -4 39 -44 42 -31 2 -43 -1 -48 -13z"/>
<path d="M10063 13323 c-9 -3 -13 -26 -13 -64 l0 -59 -54 0 c-58 0 -82 -16
-72 -48 7 -20 43 -32 96 -32 l27 0 6 -214 c7 -244 15 -276 67 -295 38 -13 139
-15 158 -2 8 5 12 21 10 37 -3 28 -6 29 -58 32 -30 2 -60 8 -67 14 -10 8 -13
62 -13 219 l0 208 63 3 62 3 0 35 0 35 -67 3 -68 3 0 64 0 65 -32 -1 c-18 0
-39 -3 -45 -6z"/>
<path d="M8593 13213 c-26 -5 -29 -26 -13 -85 13 -47 18 -50 63 -36 41 12 42
18 26 84 -12 46 -17 48 -76 37z"/>
<path d="M10425 13178 c-7 -24 -35 -559 -30 -569 5 -8 83 -14 86 -6 1 1 9 128
19 282 12 187 14 284 7 293 -5 6 -25 12 -44 12 -18 0 -35 -6 -38 -12z"/>
<path d="M9565 13173 c-11 -2 -44 -9 -72 -14 -52 -10 -53 -11 -53 -46 l0 -36
53 7 c223 28 242 21 262 -96 7 -42 7 -42 -95 -52 -107 -11 -182 -46 -207 -96
-19 -38 -16 -138 7 -188 39 -86 150 -105 270 -45 54 27 60 28 60 11 0 -14 8
-18 40 -18 26 0 43 5 46 15 7 18 -23 364 -38 428 -12 57 -49 104 -95 123 -30
13 -133 17 -178 7z m200 -305 c2 -7 6 -47 9 -89 l7 -76 -59 -27 c-57 -25 -113
-33 -147 -20 -24 10 -45 58 -45 106 1 68 30 93 128 107 85 13 102 12 107 -1z"/>
<path d="M10801 13145 c-104 -33 -157 -133 -168 -316 -5 -88 -4 -100 19 -151
28 -61 66 -93 135 -114 143 -43 260 15 302 149 27 87 37 212 21 275 -14 61
-65 124 -117 145 -59 23 -141 29 -192 12z m164 -95 c58 -36 72 -96 51 -227
-16 -108 -43 -159 -94 -180 -47 -19 -113 -9 -152 23 -45 39 -55 85 -41 196 14
106 38 165 78 190 39 24 117 23 158 -2z"/>
<path d="M9028 13088 c-147 -31 -148 -31 -148 -58 0 -48 14 -50 157 -22 73 14
135 24 138 20 3 -3 -44 -100 -105 -215 -122 -232 -130 -263 -85 -309 17 -17
32 -23 47 -19 13 3 92 18 176 34 83 17 157 33 162 36 11 7 2 57 -12 66 -5 3
-73 -7 -151 -22 -78 -15 -145 -24 -148 -21 -3 4 45 104 107 222 63 118 114
227 114 242 0 15 -4 38 -10 52 -8 23 -15 26 -52 25 -24 -1 -109 -15 -190 -31z"/>
<path d="M11315 13068 c-20 -52 -141 -549 -135 -557 3 -6 23 -12 44 -14 l39
-2 57 222 c31 123 59 226 63 229 15 15 152 8 184 -9 68 -36 68 -63 2 -315 -27
-107 -47 -198 -42 -203 4 -4 25 -10 45 -14 42 -8 30 -37 97 232 61 241 53 310
-40 363 -38 22 -56 25 -136 25 -81 0 -93 2 -93 17 0 9 -10 20 -22 23 -13 4
-31 9 -41 11 -9 3 -19 -1 -22 -8z"/>
<path d="M8660 12996 c-27 -9 -34 -16 -32 -31 9 -49 143 -530 150 -537 10 -10
82 10 82 23 0 27 -143 535 -153 546 -9 8 -20 8 -47 -1z"/>
<path d="M12316 12927 c-18 -19 -38 -53 -46 -77 -17 -51 -27 -56 -75 -36 -51
22 -72 20 -78 -6 -8 -28 3 -40 53 -63 22 -10 40 -23 40 -30 0 -6 -40 -109 -90
-228 -49 -120 -90 -223 -90 -231 0 -16 54 -41 72 -33 7 2 53 101 101 218 48
118 91 220 96 227 6 10 20 8 65 -9 61 -24 70 -21 81 22 6 24 2 28 -49 50 -31
12 -56 29 -56 36 0 8 11 36 25 63 29 56 48 62 110 33 38 -18 48 -14 60 25 6
20 0 25 -47 47 -31 14 -71 25 -97 25 -37 0 -49 -5 -75 -33z"/>
<path d="M8264 12882 c-54 -19 -134 -76 -134 -95 0 -7 -7 -4 -15 7 -15 20 -45
18 -78 -6 -16 -12 -10 -32 80 -281 l98 -269 34 6 c19 3 39 10 44 15 7 7 -16
83 -67 221 -42 116 -76 217 -76 225 0 17 67 71 114 90 52 22 84 19 115 -12 27
-27 43 -66 131 -306 l43 -119 31 6 c60 12 60 16 -13 216 -37 102 -75 199 -83
215 -23 43 -69 84 -109 95 -45 13 -55 12 -115 -8z"/>
<path d="M7722 12650 c-43 -10 -156 -69 -195 -101 -29 -24 -30 -29 -19 -53 6
-14 16 -26 22 -26 6 0 47 20 90 45 128 73 173 73 215 2 14 -24 25 -48 25 -53
0 -5 -30 -25 -68 -44 -115 -59 -172 -124 -172 -193 0 -47 49 -137 89 -164 70
-47 173 -22 249 60 37 41 45 45 61 35 22 -14 68 2 77 26 5 14 -160 356 -199
410 -21 30 -89 66 -122 65 -11 -1 -35 -5 -53 -9z m213 -330 c19 -38 35 -74 35
-80 0 -20 -87 -98 -124 -110 -54 -17 -81 -6 -111 43 -32 56 -32 89 3 127 25
27 132 90 153 90 5 0 25 -31 44 -70z"/>
<path d="M12578 12588 c-61 -17 -121 -78 -172 -177 -80 -156 -82 -241 -8 -323
101 -113 273 -117 362 -10 43 52 97 159 114 226 12 46 13 68 5 108 -26 118
-182 209 -301 176z m131 -93 c52 -27 81 -71 81 -125 0 -58 -65 -194 -117 -247
-59 -58 -144 -53 -203 13 -44 50 -42 110 6 207 20 39 46 85 57 100 43 61 117
83 176 52z"/>
<path d="M7214 12374 c-140 -89 -170 -115 -195 -169 -24 -52 -24 -99 2 -151
22 -46 80 -104 104 -104 10 0 14 -12 13 -42 0 -35 5 -47 31 -70 17 -15 40 -28
50 -28 15 0 18 -8 18 -55 0 -42 6 -64 27 -95 48 -73 107 -93 198 -66 68 19
188 103 218 151 69 112 -7 246 -130 230 -25 -3 -101 -23 -170 -45 -144 -46
-156 -47 -165 -20 -9 27 -1 37 43 51 74 24 164 94 192 149 38 74 15 158 -58
221 -38 33 -40 37 -25 52 14 13 14 21 5 42 -6 14 -18 25 -25 25 -8 0 -67 -34
-133 -76z m118 -111 c74 -80 62 -139 -41 -204 -76 -49 -151 -36 -186 31 -33
64 -10 118 74 171 61 39 117 40 153 2z m243 -369 c19 -8 45 -55 45 -83 0 -47
-140 -151 -203 -151 -54 0 -113 90 -98 148 7 26 44 43 166 77 59 16 68 17 90
9z"/>
<path d="M12933 12114 c-83 -130 -149 -242 -147 -248 3 -7 18 -20 34 -29 24
-15 30 -15 42 -4 7 8 65 96 128 195 113 178 116 181 150 181 19 0 55 -8 79
-19 24 -11 48 -20 53 -20 15 0 37 31 38 51 0 19 -57 45 -119 55 -31 5 -38 10
-34 24 5 19 -30 50 -57 50 -9 0 -78 -97 -167 -236z"/>
<path d="M6800 12093 c-18 -20 -37 -49 -42 -65 -8 -22 -13 -26 -24 -17 -16 13
-46 5 -68 -20 -16 -17 -8 -30 154 -242 94 -123 177 -225 185 -227 18 -4 65 27
65 43 0 7 -61 92 -135 189 -74 97 -135 183 -135 191 0 20 26 62 64 102 27 30
28 35 16 58 -19 35 -42 31 -80 -12z"/>
<path d="M13715 12066 c-43 -18 -92 -78 -105 -127 -14 -52 -7 -94 41 -247 50
-158 51 -202 5 -248 -27 -27 -42 -34 -72 -34 -49 0 -88 24 -185 111 -42 38
-81 69 -86 69 -6 0 -18 -11 -27 -25 -16 -25 -16 -27 21 -71 21 -25 63 -66 93
-91 132 -109 228 -119 323 -34 82 74 87 140 22 341 -51 158 -54 195 -24 234
51 65 111 50 225 -55 119 -110 111 -105 134 -84 11 10 20 26 20 35 0 10 -42
58 -94 108 -125 119 -210 154 -291 118z"/>
<path d="M6297 11909 c-90 -21 -183 -97 -221 -179 -30 -66 -27 -152 8 -223 32
-67 198 -253 263 -296 131 -87 255 -75 369 35 92 90 112 203 55 318 -46 94
-222 276 -304 315 -72 34 -117 42 -170 30z m121 -111 c61 -31 233 -213 268
-283 45 -93 23 -170 -69 -236 -54 -39 -119 -40 -189 -2 -59 32 -231 217 -259
278 -30 65 -25 126 14 177 65 85 149 108 235 66z"/>
<path d="M14016 11602 c-15 -18 -14 -22 20 -66 l36 -48 -161 -162 c-142 -143
-161 -166 -161 -195 0 -42 13 -66 63 -118 42 -44 64 -52 85 -31 20 20 14 43
-23 78 -19 19 -35 41 -35 49 0 15 225 248 273 283 l29 21 42 -42 c47 -46 56
-49 79 -23 24 27 22 38 -23 86 l-39 43 39 38 c46 45 49 59 18 86 -33 27 -47
24 -90 -18 l-38 -37 -38 37 c-43 42 -52 44 -76 19z"/>
<path d="M9910 11293 c-30 -2 -118 -10 -195 -19 -1089 -120 -2059 -688 -2683
-1570 -79 -111 -79 -111 17 -113 51 -1 46 -6 212 202 165 208 377 419 556 553
54 40 59 42 80 29 12 -8 95 -56 185 -106 90 -50 167 -95 172 -99 4 -5 -36 -64
-91 -132 -55 -67 -125 -158 -157 -201 -56 -75 -156 -231 -156 -242 0 -3 31 -5
70 -5 l69 0 72 102 c80 112 198 261 281 352 l54 60 210 -76 c115 -42 256 -91
314 -108 58 -18 109 -36 113 -40 5 -4 -18 -69 -51 -143 -33 -75 -57 -138 -54
-142 8 -8 115 -6 128 3 6 4 32 52 58 107 26 55 53 109 61 121 l13 20 113 -22
c152 -30 408 -61 603 -74 107 -7 162 -14 168 -22 4 -7 8 -39 8 -70 l0 -58 70
0 69 0 3 68 3 67 155 12 c252 19 480 51 634 87 33 8 65 12 72 9 8 -3 42 -59
76 -124 57 -109 66 -120 95 -125 31 -6 103 2 103 11 0 2 -27 65 -60 140 -58
134 -59 136 -37 144 12 5 85 29 162 54 77 24 212 73 299 107 118 46 164 60
175 53 31 -19 176 -191 289 -343 64 -85 117 -157 119 -159 5 -7 133 -4 140 2
15 16 -218 340 -360 499 -32 37 -56 71 -53 77 6 9 261 158 343 200 l42 21 113
-92 c204 -166 408 -382 610 -646 l48 -62 64 0 c36 0 68 5 71 10 4 6 -32 64
-80 129 -387 529 -944 977 -1535 1234 -404 176 -745 263 -1240 317 -31 3 -507
6 -560 3z m650 -149 c130 -14 379 -60 390 -70 17 -18 -218 -140 -352 -183
-323 -102 -699 -92 -1003 28 -87 35 -256 130 -262 148 -7 20 340 76 582 93
160 11 478 4 645 -16z m797 -180 c282 -93 545 -220 800 -386 69 -45 120 -85
117 -91 -4 -11 -334 -197 -349 -197 -3 0 -53 43 -109 95 -188 175 -458 379
-663 502 -51 31 -93 61 -93 69 0 7 19 26 43 43 50 35 38 37 254 -35z m-2171
24 c24 -17 44 -35 44 -39 0 -4 -37 -31 -82 -60 -221 -140 -463 -325 -665 -508
l-112 -102 -63 27 c-93 39 -298 160 -298 176 0 10 116 90 250 170 205 123 404
218 634 300 59 21 116 44 126 51 10 6 41 13 70 14 44 3 58 -2 96 -29z m394
-208 c12 -6 19 -18 16 -25 -2 -7 -38 -58 -80 -112 -86 -115 -185 -265 -315
-480 -51 -84 -95 -153 -98 -153 -21 0 -308 89 -403 125 -171 65 -180 68 -180
81 0 16 146 148 290 263 138 111 305 225 458 314 l113 65 88 -33 c49 -18 99
-39 111 -45z m1458 10 c158 -90 304 -188 433 -291 126 -101 299 -257 299 -270
0 -25 -421 -179 -560 -204 l-36 -6 -69 113 c-85 140 -291 447 -369 551 -32 43
-57 80 -54 82 10 10 204 94 219 94 8 1 70 -30 137 -69z m-1110 -89 c73 -11
136 -22 140 -26 9 -9 9 -772 0 -781 -23 -22 -197 -14 -478 22 -133 17 -318 53
-325 64 -2 4 25 58 61 121 150 262 409 619 449 619 11 0 80 -9 153 -19z m702
-119 c127 -165 289 -408 348 -519 l43 -82 -38 -10 c-141 -38 -449 -77 -648
-83 l-110 -3 -3 393 c-2 309 0 394 10 397 13 5 250 42 278 44 8 0 62 -61 120
-137z"/>
<path d="M5591 11231 c-12 -16 -21 -34 -21 -39 0 -7 421 -350 607 -494 13 -11
65 40 61 60 -3 13 -606 502 -619 502 -4 0 -17 -13 -28 -29z"/>
<path d="M14356 11238 l-28 -24 65 -71 c68 -74 97 -119 97 -149 0 -21 -44 -80
-70 -94 -17 -9 -31 0 -102 74 -100 102 -140 119 -212 92 -49 -19 -112 -75
-127 -113 -33 -87 21 -188 129 -242 44 -22 49 -30 31 -48 -8 -8 -3 -20 18 -43
l29 -32 166 135 c180 148 203 171 218 227 18 68 -9 127 -103 226 l-83 87 -28
-25z m-132 -267 c30 -20 118 -122 114 -132 -2 -4 -31 -30 -65 -58 l-62 -52
-39 20 c-59 30 -112 94 -112 135 0 28 8 41 42 70 47 41 79 45 122 17z"/>
<path d="M5573 10825 c-50 -30 -163 -193 -163 -236 0 -13 29 -38 46 -39 6 0
34 38 62 84 80 131 116 149 199 101 23 -14 43 -28 43 -31 0 -2 -18 -31 -41
-64 -48 -70 -79 -146 -79 -193 0 -87 136 -185 225 -163 59 15 145 129 145 193
0 36 10 51 31 46 19 -5 58 30 59 53 0 12 -313 230 -369 256 -52 25 -108 22
-158 -7z m328 -217 c32 -22 59 -46 59 -53 0 -37 -35 -119 -64 -150 -41 -43
-59 -44 -119 -5 -74 46 -75 90 -5 198 28 43 46 61 56 57 8 -3 41 -24 73 -47z"/>
<path d="M14500 10657 c-129 -84 -236 -159 -237 -167 -2 -8 7 -28 19 -43 l23
-28 195 125 c107 69 198 126 203 126 17 0 81 -56 109 -94 31 -44 36 -85 12
-121 -8 -13 -96 -76 -195 -141 -98 -64 -179 -118 -179 -121 0 -12 35 -63 46
-67 19 -7 367 227 399 268 69 90 26 222 -97 301 -23 14 -25 20 -16 35 9 14 7
24 -11 49 -12 17 -25 31 -29 31 -4 0 -113 -69 -242 -153z"/>
<path d="M5271 10343 c-56 -28 -111 -135 -111 -219 0 -27 -3 -31 -19 -27 -22
6 -55 -36 -49 -63 3 -16 461 -270 497 -277 16 -2 56 57 47 72 -4 5 -96 57
-206 116 l-200 107 0 36 c0 61 20 114 56 150 30 30 39 34 72 30 21 -3 119 -49
218 -102 99 -53 184 -96 190 -96 14 0 44 64 36 76 -10 14 -325 183 -374 200
-53 19 -115 17 -157 -3z"/>
<path d="M14915 10206 c-22 -7 -77 -32 -122 -55 -215 -112 -233 -246 -64 -478
l31 -42 349 172 c377 185 376 184 332 238 l-19 24 -95 -47 -94 -47 -27 67
c-59 152 -159 209 -291 168z m160 -106 c21 -20 91 -157 84 -164 -9 -9 -370
-186 -378 -186 -5 0 -25 31 -45 69 -46 88 -47 128 -4 176 28 33 153 105 218
126 39 13 100 3 125 -21z"/>
<path d="M5080 9801 c-85 -17 -147 -79 -175 -174 -28 -96 -13 -152 59 -222 89
-86 279 -145 371 -115 128 42 200 227 132 342 -14 24 -43 56 -64 71 -46 32
-171 84 -221 93 -20 3 -44 7 -52 9 -8 1 -31 -1 -50 -4z m158 -121 c155 -61
200 -124 158 -223 -39 -91 -120 -106 -261 -47 -106 44 -155 92 -155 150 0 55
26 108 64 131 44 27 108 23 194 -11z"/>
<path d="M15320 9693 c-39 -14 -39 -23 0 -112 37 -85 43 -110 41 -158 -1 -25
-57 -67 -102 -78 -23 -6 -27 -2 -38 37 -35 116 -106 209 -170 223 -38 8 -128
-17 -165 -46 -81 -64 -72 -195 22 -291 33 -35 35 -39 19 -51 -17 -11 -17 -15
-2 -50 8 -20 17 -37 20 -37 22 0 416 156 441 175 43 33 69 101 60 156 -9 56
-63 185 -90 214 -12 13 -28 21 -36 18z m-232 -196 c27 -22 91 -171 79 -183 -3
-3 -39 -18 -81 -34 l-76 -28 -36 40 c-40 44 -64 94 -64 132 0 67 124 118 178
73z"/>
<path d="M4571 9326 c-6 -7 -14 -27 -17 -44 -6 -28 -3 -33 22 -43 16 -6 43
-13 60 -16 29 -5 33 -2 44 32 14 43 11 47 -52 68 -38 12 -49 13 -57 3z"/>
<path d="M4774 9235 c-10 -26 -12 -41 -5 -48 12 -12 508 -166 537 -167 17 0
23 8 29 36 3 20 3 40 -2 44 -4 4 -123 43 -263 85 -140 43 -261 80 -268 82 -7
3 -19 -10 -28 -32z"/>
<path d="M9041 9254 c-379 -52 -689 -209 -847 -431 -104 -145 -161 -318 -171
-519 -10 -203 31 -386 121 -538 86 -146 292 -321 488 -414 101 -48 337 -127
678 -228 411 -122 741 -224 771 -239 37 -20 79 -72 79 -99 0 -33 -34 -71 -78
-89 -60 -24 -193 -46 -316 -53 -404 -23 -824 156 -1006 429 l-55 82 -325 -4
c-179 -2 -326 -4 -327 -5 -7 -6 -14 -755 -8 -948 l7 -248 364 0 364 0 0 115
c0 63 2 115 5 115 3 0 65 -31 138 -69 546 -287 1273 -309 1758 -55 321 169
530 547 504 913 -9 129 -36 229 -95 346 -60 122 -124 207 -228 307 -178 170
-311 236 -702 348 -754 216 -976 283 -1028 309 -125 64 -122 169 7 230 54 25
63 26 211 24 425 -4 818 -169 995 -416 l40 -56 348 -1 347 0 0 278 c0 153 -3
408 -7 565 l-6 287 -296 0 c-163 0 -319 -3 -347 -6 l-51 -6 -5 -90 c-3 -49 -8
-91 -11 -94 -3 -3 -56 22 -119 56 -319 174 -805 257 -1197 204z"/>
<path d="M12765 9258 c-313 -35 -653 -152 -884 -305 -47 -31 -129 -100 -181
-152 -231 -232 -348 -502 -404 -932 -74 -567 30 -1048 301 -1396 184 -238 547
-446 939 -538 456 -108 1051 -58 1448 121 432 195 669 483 791 959 90 352 93
740 8 1100 -75 319 -172 497 -373 688 -111 106 -221 180 -381 256 -210 100
-438 165 -689 196 -136 16 -441 18 -575 3z m526 -837 c81 -26 175 -85 213
-135 72 -94 87 -191 93 -598 5 -314 -5 -550 -28 -660 -24 -112 -102 -219 -192
-265 -215 -108 -589 -69 -719 75 -96 106 -123 221 -140 582 -17 384 10 680 77
815 47 97 158 170 301 200 100 21 308 13 395 -14z"/>
<path d="M5737 9233 c-16 -4 -17 -30 -15 -401 l3 -397 220 -6 c121 -4 228 -7
238 -8 16 -1 17 -48 17 -840 l0 -839 -239 -7 -238 -7 -7 -136 c-8 -172 -8
-332 1 -505 l6 -137 1064 0 1063 0 0 390 0 390 -138 0 c-77 0 -187 3 -245 7
l-107 6 0 837 0 837 122 6 c66 4 177 7 245 7 l123 0 0 388 c0 226 -4 393 -10
402 -8 13 -137 15 -1047 17 -571 1 -1046 -1 -1056 -4z"/>
<path d="M15253 9091 c-242 -67 -273 -78 -273 -96 0 -38 12 -65 29 -65 9 0
111 27 226 59 l210 58 23 -21 c13 -11 35 -43 49 -71 32 -63 26 -58 62 -50 22
5 31 12 31 26 0 27 -27 78 -57 110 -23 25 -23 28 -8 37 13 7 16 16 10 40 -3
17 -12 35 -18 40 -8 5 -112 -19 -284 -67z"/>
<path d="M4711 9028 c-4 -13 -11 -40 -15 -62 -8 -42 -6 -42 -112 -20 -30 6
-32 5 -37 -32 -5 -46 7 -60 64 -69 21 -4 41 -10 44 -15 3 -5 0 -32 -6 -60 -9
-43 -9 -54 2 -61 32 -20 48 -9 66 42 10 28 23 53 28 55 6 3 95 -16 198 -41
218 -52 258 -55 292 -21 39 40 71 171 43 181 -44 15 -51 10 -64 -39 -22 -86
-16 -85 -241 -31 -109 26 -201 49 -204 51 -4 2 0 31 9 65 13 52 13 62 1 70
-26 16 -59 10 -68 -13z"/>
<path d="M15328 8780 c-196 -41 -269 -127 -240 -284 18 -94 51 -196 67 -202
14 -6 717 121 752 136 19 8 20 13 13 45 -5 20 -11 39 -13 42 -3 2 -41 -2 -84
-11 -139 -27 -127 -31 -135 46 -9 92 -24 134 -65 179 -24 27 -51 44 -86 54
-64 19 -101 18 -209 -5z m220 -96 c12 -8 28 -27 36 -42 15 -30 39 -163 30
-171 -11 -11 -409 -80 -417 -72 -4 4 -15 42 -23 84 -15 72 -15 79 3 114 10 21
32 45 49 55 73 42 278 63 322 32z"/>
<path d="M4685 8576 c-75 -34 -106 -102 -113 -248 l-5 -107 27 -7 c15 -3 31
-3 35 2 5 5 14 56 20 114 6 58 18 114 27 127 21 32 59 45 110 37 l43 -6 -5
-122 c-6 -138 4 -173 64 -213 41 -27 128 -39 175 -24 90 30 133 155 93 269
-14 39 -14 41 7 44 15 2 23 13 28 38 4 19 5 38 1 42 -9 9 -394 68 -441 68 -20
-1 -49 -7 -66 -14z m295 -111 c100 -14 97 -12 110 -66 15 -61 5 -134 -21 -160
-30 -30 -122 -27 -154 6 -22 21 -25 33 -25 92 0 101 9 144 29 139 9 -3 36 -7
61 -11z"/>
<path d="M15843 8223 c-14 -5 -16 -34 -7 -70 7 -25 32 -29 93 -17 29 6 31 9
31 50 l0 44 -52 -1 c-29 0 -59 -3 -65 -6z"/>
<path d="M15410 8180 c-140 -16 -256 -29 -257 -29 -8 -2 -1 -81 7 -86 8 -5
444 36 543 51 33 5 37 9 37 34 0 47 -9 60 -44 59 -17 -1 -146 -14 -286 -29z"/>
<path d="M4653 8008 c-78 -17 -133 -93 -133 -184 0 -28 16 -92 35 -136 4 -11
0 -18 -15 -23 -18 -6 -21 -13 -18 -48 l3 -42 135 -6 c74 -4 205 -8 290 -10
l155 -4 3 42 c2 33 -1 42 -15 46 -10 3 -116 9 -236 12 l-219 7 -13 32 c-39 92
-26 184 28 213 28 14 59 15 249 9 l217 -7 6 35 c4 19 4 39 1 45 -12 19 -404
35 -473 19z"/>
<path d="M15693 7939 c-9 -9 -11 -48 -6 -151 3 -76 3 -138 -1 -138 -4 0 -93
65 -198 145 -185 140 -193 145 -239 145 -79 0 -83 -12 -72 -227 l8 -178 35 0
35 0 -3 158 c-1 86 0 157 3 157 3 0 95 -67 205 -150 185 -139 204 -150 243
-150 24 0 48 5 55 12 13 13 15 199 3 318 -6 60 -8 65 -31 68 -14 2 -31 -3 -37
-9z"/>
<path d="M4520 7402 c0 -22 10 -59 24 -84 23 -43 23 -45 5 -56 -20 -13 -26
-61 -10 -77 12 -12 548 11 571 24 15 8 16 68 2 83 -6 6 -197 -1 -410 -15 -53
-4 -53 -4 -73 36 -11 21 -24 58 -27 80 -7 40 -9 42 -45 45 -37 3 -37 3 -37
-36z"/>
<path d="M15263 7430 c-56 -18 -103 -95 -103 -172 0 -14 8 -53 19 -86 17 -57
18 -61 1 -65 -26 -7 -37 -67 -16 -82 10 -7 103 -17 235 -25 l219 -13 48 24
c33 17 54 35 67 61 26 51 40 170 30 244 -8 57 -9 59 -41 62 l-32 3 -1 -73 c-1
-109 -13 -176 -35 -199 -22 -22 -80 -35 -116 -26 -23 6 -24 9 -23 119 0 129
-17 178 -74 211 -36 22 -132 31 -178 17z m148 -103 c9 -7 21 -22 27 -34 13
-24 16 -171 4 -190 -5 -8 -32 -10 -89 -6 l-82 6 -15 39 c-28 67 -18 166 18
190 18 12 120 8 137 -5z"/>
<path d="M5050 7073 c0 -5 9 -51 20 -103 37 -178 21 -230 -83 -264 -32 -10
-60 -16 -63 -13 -3 3 -17 86 -30 183 -14 98 -30 181 -35 185 -18 11 -123 -11
-177 -37 -74 -36 -105 -85 -110 -175 -8 -133 47 -224 155 -255 52 -15 66 -15
164 -1 138 19 207 50 246 108 26 39 28 50 28 138 0 72 -6 114 -23 169 -22 71
-23 72 -57 72 -19 0 -35 -3 -35 -7z m-240 -118 c0 -7 29 -203 35 -242 l6 -33
-59 0 c-46 0 -66 5 -87 22 -35 27 -55 75 -55 130 0 54 21 85 74 109 39 17 86
25 86 14z"/>
<path d="M15650 6831 c-7 -28 -16 -54 -21 -57 -5 -3 -100 9 -211 26 -116 18
-215 29 -234 25 -42 -7 -70 -43 -84 -108 -18 -78 -12 -101 27 -105 31 -3 32
-2 39 45 9 63 18 73 68 72 66 0 381 -54 380 -65 -17 -116 -16 -123 10 -130 44
-11 54 0 62 66 l7 61 46 -6 c91 -13 86 -15 86 35 l0 45 -57 9 -57 9 6 46 c10
76 10 76 -23 79 -30 3 -32 1 -44 -47z"/>
<path d="M5167 6573 c-16 -4 -17 -12 -11 -73 l6 -68 -33 -11 c-39 -12 -364
-91 -378 -91 -5 0 -15 24 -21 53 -16 67 -24 77 -58 68 -29 -8 -30 -13 -21
-105 l4 -40 -57 -14 c-63 -15 -68 -24 -42 -73 12 -24 20 -30 37 -25 12 3 38 9
58 12 l36 6 13 -52 c13 -54 31 -70 59 -53 12 8 15 23 13 70 l-4 59 184 43
c192 45 254 66 277 95 19 22 17 93 -4 156 -16 49 -21 53 -58 43z"/>
<path d="M15061 6484 c-8 -29 -8 -41 2 -50 12 -11 515 -125 548 -124 18 0 37
67 22 80 -4 5 -123 34 -263 65 -140 31 -265 58 -277 61 -18 5 -23 0 -32 -32z"/>
<path d="M15731 6333 c-15 -52 -16 -51 27 -62 58 -17 92 -14 92 7 0 9 3 27 6
39 7 25 -11 37 -73 48 -42 7 -42 7 -52 -32z"/>
<path d="M15081 6249 c-81 -32 -141 -130 -141 -231 0 -70 12 -103 53 -146 41
-43 89 -68 190 -98 133 -40 215 -29 285 38 61 60 90 194 58 271 -7 18 -34 51
-60 74 -84 74 -300 126 -385 92z m212 -109 c147 -47 193 -113 149 -213 -37
-82 -95 -101 -216 -68 -164 45 -220 100 -202 196 8 39 49 93 80 105 39 16 96
10 189 -20z"/>
<path d="M5083 6109 c-220 -77 -271 -108 -293 -175 -22 -66 9 -164 73 -231 29
-31 30 -34 13 -46 -17 -12 -17 -16 -2 -50 8 -20 19 -37 25 -37 5 0 129 41 276
91 l267 92 -6 30 c-12 61 -10 61 -249 -19 l-222 -75 -29 33 c-38 44 -66 105
-66 146 0 60 38 83 248 152 103 35 193 68 200 75 11 10 11 18 -2 49 -8 20 -19
36 -23 35 -4 0 -99 -32 -210 -70z"/>
<path d="M14854 5761 c-5 -3 -15 -19 -22 -35 -11 -24 -11 -31 0 -41 7 -7 105
-52 217 -101 l203 -88 -4 -61 c-9 -111 -65 -178 -135 -160 -15 3 -111 43 -212
87 -175 76 -185 79 -198 62 -15 -20 -28 -63 -22 -68 2 -2 89 -40 194 -85 197
-86 258 -101 318 -82 71 24 127 124 127 227 0 36 3 43 21 46 22 3 52 58 40 75
-5 8 -122 60 -442 198 -42 18 -80 30 -85 26z"/>
<path d="M5141 5460 c-190 -83 -349 -154 -354 -159 -11 -11 18 -81 34 -81 18
0 692 291 708 306 13 12 13 18 -2 49 -9 19 -22 35 -29 34 -7 0 -168 -67 -357
-149z"/>
<path d="M6987 5592 c-16 -7 -12 -16 32 -80 263 -382 607 -717 1011 -986 147
-98 367 -226 388 -226 6 0 12 -4 14 -9 4 -12 225 -108 388 -169 275 -103 603
-183 890 -217 187 -23 561 -30 745 -16 1153 91 2138 641 2814 1571 l91 125
-28 8 c-15 4 -50 5 -79 2 -46 -6 -54 -10 -77 -45 -57 -87 -237 -301 -356 -424
-142 -147 -346 -326 -372 -326 -9 0 -45 17 -80 39 -35 21 -118 69 -185 107
-68 38 -123 72 -123 76 0 5 46 65 103 136 130 161 307 413 307 437 0 3 -33 5
-73 5 l-72 0 -85 -122 c-100 -144 -221 -296 -282 -355 l-43 -43 -140 55 c-76
31 -216 81 -310 111 -94 31 -177 59 -184 63 -10 6 -1 35 38 118 28 60 54 124
57 142 l7 32 -64 -3 -64 -3 -65 -128 c-56 -110 -68 -127 -85 -122 -103 28
-483 79 -725 99 l-145 11 -5 70 -5 70 -62 3 -63 3 0 -63 c0 -35 -4 -68 -8 -75
-4 -6 -67 -16 -157 -22 -213 -16 -387 -37 -558 -67 -81 -14 -152 -24 -158 -22
-6 2 -39 58 -73 123 l-61 120 -59 3 c-32 2 -62 -1 -66 -5 -4 -4 18 -69 51
-143 44 -102 55 -138 46 -146 -7 -6 -68 -27 -137 -48 -69 -21 -210 -70 -314
-108 -140 -53 -193 -68 -205 -61 -28 17 -231 264 -307 373 -103 148 -93 140
-169 140 -36 0 -65 -4 -65 -8 0 -12 96 -163 149 -237 25 -33 93 -122 153 -197
60 -76 107 -142 104 -147 -7 -11 -239 -148 -323 -190 l-62 -31 -74 60 c-206
165 -408 372 -568 582 -129 168 -129 168 -185 167 -27 0 -57 -4 -67 -7z m3106
-514 c9 -311 9 -578 0 -578 -14 0 -247 -30 -278 -35 -33 -6 -40 2 -183 192
-146 194 -353 536 -335 554 29 29 504 92 729 98 l61 1 6 -232z m520 206 c137
-13 409 -58 428 -70 16 -9 10 -24 -52 -132 -85 -149 -193 -312 -317 -479 -119
-161 -104 -153 -238 -129 -44 8 -104 17 -135 21 l-56 6 -7 228 c-4 125 -4 307
0 405 l7 177 111 -6 c61 -3 178 -13 259 -21z m-1403 -231 c62 -112 233 -375
350 -538 31 -44 60 -85 63 -91 4 -7 -33 -29 -103 -59 l-109 -47 -108 57 c-132
69 -355 217 -482 319 -107 85 -291 254 -291 265 0 12 212 99 355 146 273 88
244 93 325 -52z m2118 92 c180 -48 462 -156 462 -176 0 -16 -159 -167 -272
-260 -165 -135 -388 -282 -556 -368 l-40 -21 -99 44 c-62 28 -98 49 -97 59 1
8 45 76 99 151 110 156 250 376 321 507 36 65 54 89 69 89 11 0 62 -11 113
-25z m-2836 -346 c193 -175 416 -346 640 -489 65 -41 117 -78 118 -82 0 -5
-19 -22 -42 -39 -53 -38 -67 -37 -270 31 -177 60 -380 148 -543 237 -153 84
-365 222 -365 237 1 12 134 95 265 163 44 23 81 43 83 43 2 0 53 -45 114 -101z
m3561 55 c94 -47 257 -144 257 -154 0 -8 -135 -102 -230 -160 -191 -119 -552
-280 -782 -350 -118 -36 -133 -35 -193 17 -29 25 -29 26 -10 40 11 7 95 63
186 122 216 142 499 369 623 500 17 17 36 31 43 31 7 0 55 -21 106 -46z
m-1670 -509 c128 -17 267 -53 369 -96 94 -40 228 -119 228 -135 0 -25 -302
-75 -575 -95 -291 -21 -677 4 -952 62 -57 12 -103 25 -103 30 0 9 91 65 179
109 122 61 331 118 491 133 90 9 265 5 363 -8z"/>
<path d="M8837 2979 c-98 -23 -179 -88 -221 -178 -17 -38 -21 -65 -21 -161 0
-109 2 -118 30 -168 59 -108 160 -148 348 -139 l119 5 -6 -51 c-19 -141 -72
-167 -305 -147 -110 10 -135 9 -142 -2 -11 -16 -11 -129 -1 -144 14 -22 88
-36 228 -41 127 -5 149 -3 214 16 132 40 208 144 230 315 12 94 12 304 0 390
-23 153 -102 257 -227 296 -69 21 -177 25 -246 9z m188 -191 c40 -31 56 -81
62 -189 l6 -96 -48 -6 c-115 -16 -183 1 -210 54 -9 17 -15 56 -15 99 0 115 35
160 126 160 37 0 59 -6 79 -22z"/>
<path d="M9685 2970 c-108 -35 -175 -114 -212 -251 -14 -51 -18 -103 -17 -259
0 -184 2 -199 27 -277 33 -100 90 -168 169 -204 46 -21 68 -24 168 -24 103 0
121 3 170 26 149 69 200 194 200 484 0 296 -56 430 -205 496 -72 32 -218 36
-300 9z m217 -209 c44 -49 53 -98 53 -296 0 -196 -11 -249 -59 -294 -56 -52
-144 -30 -182 45 -17 35 -19 62 -19 254 0 205 1 217 23 258 41 77 130 93 184
33z"/>
<path d="M10555 2970 c-110 -36 -177 -117 -212 -256 -24 -97 -24 -402 0 -491
49 -183 144 -263 322 -271 209 -9 326 73 375 263 25 97 28 380 6 486 -27 127
-93 217 -191 260 -72 32 -218 36 -300 9z m211 -201 c48 -45 59 -98 59 -294 0
-198 -10 -258 -52 -300 -60 -59 -149 -38 -186 43 -20 43 -22 62 -22 252 0 190
2 208 22 253 35 76 123 99 179 46z"/>
<path d="M11400 2916 l-135 -63 -3 -88 c-2 -49 1 -92 5 -96 4 -4 50 10 102 32
52 21 96 39 98 39 1 0 3 -133 3 -295 l0 -294 -102 -3 -103 -3 0 -90 0 -90 320
0 320 0 3 92 3 92 -103 3 -103 3 -5 410 -5 410 -80 3 c-80 2 -81 2 -215 -62z"/>
</g>
</svg>
