<?xml version="1.0" encoding="UTF-8"?>
<svg version="1.1" xmlns="http://www.w3.org/2000/svg" width="546" height="457">
<path d="M0 0 C0.99 0 1.98 0 3 0 C5.3430892 2.55662196 6.51377332 5.0630038 7.625 8.3125 C9.40653269 12.96086689 11.71049831 17.03150476 14.3125 21.25 C26.61312433 41.37132858 26.61312433 41.37132858 26.375 47.0625 C25.13839656 52.06315076 22.14945582 56.62676084 19.59375 61.046875 C18.28668863 63.46878284 17.46820322 65.32083713 17 68 C16.34 68 15.68 68 15 68 C15 68.66 15 69.32 15 70 C13.68 70.33 12.36 70.66 11 71 C10.65388672 70.07380859 10.65388672 70.07380859 10.30078125 69.12890625 C7.98471618 63.1144606 5.2714527 57.55074351 2 52 C-0.99211069 54.57232203 -2.36733699 57.4680633 -4.0625 61 C-7.39825001 67.8640889 -10.93280489 74.61030867 -14.53540039 81.33789062 C-16.91746911 85.81933762 -19.07395088 90.30369192 -21 95 C-21.66 95 -22.32 95 -23 95 C-23.25394531 95.845625 -23.50789063 96.69125 -23.76953125 97.5625 C-25.0896428 101.25043067 -26.79935584 104.5839586 -28.6875 108 C-31.35988175 112.91805523 -33.95701179 117.85606825 -36.4375 122.875 C-42.65283438 135.38984936 -49.30917766 147.66634714 -56.10644531 159.87353516 C-58.4064356 164.02188437 -60.6553105 168.19364316 -62.828125 172.41015625 C-63.24481445 173.21718994 -63.66150391 174.02422363 -64.09082031 174.85571289 C-65.1951807 177.07215224 -65.1951807 177.07215224 -65 180 C-20.78 180.33 23.44 180.66 69 181 C67.32690703 175.89962503 67.32690703 175.89962503 65.08984375 171.23828125 C64.73986328 170.59439453 64.38988281 169.95050781 64.02929688 169.28710938 C63.66900391 168.63548828 63.30871094 167.98386719 62.9375 167.3125 C59.11993243 160.3597973 59.11993243 160.3597973 58 157 C60.71401294 155.64299353 62.84846316 155.8876139 65.8828125 155.90234375 C67.04941406 155.90556641 68.21601563 155.90878906 69.41796875 155.91210938 C70.64128906 155.92048828 71.86460937 155.92886719 73.125 155.9375 C74.35605469 155.94201172 75.58710938 155.94652344 76.85546875 155.95117188 C79.90369392 155.9629867 82.95182314 155.97945972 86 156 C93.56915984 170.0625 93.56915984 170.0625 97 177 C99.32135056 181.68722017 101.72884157 186.32133508 104.1875 190.9375 C104.52072266 191.56462891 104.85394531 192.19175781 105.19726562 192.83789062 C106.6408839 195.53632398 108.0977732 198.14612957 109.80078125 200.69140625 C111 203 111 203 110 207 C38.39 207 -33.22 207 -107 207 C-108 203 -108 203 -107.20825195 201.22851562 C-106.57342896 200.32649414 -106.57342896 200.32649414 -105.92578125 199.40625 C-102.70266251 194.59436386 -99.95076558 189.58700261 -97.1875 184.5 C-96.70474609 183.62085938 -96.22199219 182.74171875 -95.72460938 181.8359375 C-92.74704298 176.37122741 -89.90666213 170.85097874 -87.140625 165.27734375 C-83.09459008 157.12581084 -78.85216204 149.08786311 -74.5625 141.0625 C-73.80829107 139.64766026 -73.05430578 138.23270129 -72.30053711 136.81762695 C-70.84181201 134.07947234 -69.38225985 131.34176192 -67.921875 128.60449219 C-65.62752357 124.30300275 -63.34229276 119.99672205 -61.0625 115.6875 C-60.55275635 114.72505371 -60.55275635 114.72505371 -60.03271484 113.74316406 C-58.23500223 110.34603515 -56.44604613 106.94446959 -54.6640625 103.5390625 C-50.14845052 94.91745045 -45.56049876 86.34315152 -40.875 77.8125 C-37.46285969 71.59666859 -34.12178637 65.36686605 -31 59 C-27.453502 51.76752453 -23.60354761 44.7179089 -19.72290039 37.66015625 C-15.87719185 30.6496426 -12.13059857 23.5920415 -8.4375 16.5 C-7.93702148 15.53892334 -7.43654297 14.57784668 -6.92089844 13.58764648 C-4.57804092 9.07575895 -2.25536125 4.55628536 0 0 Z " fill="#EBBD05" transform="translate(161,66)"/>
<path d="M0 0 C0.495 0.99 0.495 0.99 1 2 C0.3190918 3.90771484 0.3190918 3.90771484 -0.80078125 6.2109375 C-1.40116211 7.46003906 -1.40116211 7.46003906 -2.01367188 8.734375 C-2.44228516 9.60578125 -2.87089844 10.4771875 -3.3125 11.375 C-3.72951172 12.23867187 -4.14652344 13.10234375 -4.57617188 13.9921875 C-6.35779911 17.67478541 -8.16633381 21.34304785 -10 25 C-10.66 25 -11.32 25 -12 25 C-12.25394531 25.845625 -12.50789063 26.69125 -12.76953125 27.5625 C-14.0896428 31.25043067 -15.79935584 34.5839586 -17.6875 38 C-20.35988175 42.91805523 -22.95701179 47.85606825 -25.4375 52.875 C-31.65283438 65.38984936 -38.30917766 77.66634714 -45.10644531 89.87353516 C-47.4064356 94.02188437 -49.6553105 98.19364316 -51.828125 102.41015625 C-52.24481445 103.21718994 -52.66150391 104.02422363 -53.09082031 104.85571289 C-54.1951807 107.07215224 -54.1951807 107.07215224 -54 110 C-9.78 110.33 34.44 110.66 80 111 C78.32690703 105.89962503 78.32690703 105.89962503 76.08984375 101.23828125 C75.73986328 100.59439453 75.38988281 99.95050781 75.02929688 99.28710938 C74.66900391 98.63548828 74.30871094 97.98386719 73.9375 97.3125 C70.11993243 90.3597973 70.11993243 90.3597973 69 87 C71.71401294 85.64299353 73.84846316 85.8876139 76.8828125 85.90234375 C78.63271484 85.90717773 78.63271484 85.90717773 80.41796875 85.91210938 C81.64128906 85.92048828 82.86460937 85.92886719 84.125 85.9375 C85.35605469 85.94201172 86.58710938 85.94652344 87.85546875 85.95117188 C90.90369392 85.9629867 93.95182314 85.97945972 97 86 C104.56915984 100.0625 104.56915984 100.0625 108 107 C110.32135056 111.68722017 112.72884157 116.32133508 115.1875 120.9375 C115.52072266 121.56462891 115.85394531 122.19175781 116.19726562 122.83789062 C117.6408839 125.53632398 119.0977732 128.14612957 120.80078125 130.69140625 C122 133 122 133 121 137 C49.39 137 -22.22 137 -96 137 C-97 133 -97 133 -96.21923828 131.25048828 C-95.79884277 130.65478027 -95.37844727 130.05907227 -94.9453125 129.4453125 C-91.58397655 124.43002271 -88.74694236 119.1820057 -85.875 113.875 C-85.35035156 112.91207031 -84.82570313 111.94914062 -84.28515625 110.95703125 C-81.77729953 106.34130509 -79.30471764 101.72069751 -77 97 C-75.84042793 100.47871621 -76.22543349 101.34219645 -77.4375 104.6875 C-77.86869141 105.89986328 -77.86869141 105.89986328 -78.30859375 107.13671875 C-78.53675781 107.75160156 -78.76492187 108.36648437 -79 109 C-79.66 109 -80.32 109 -81 109 C-81.103125 109.763125 -81.20625 110.52625 -81.3125 111.3125 C-82.07916284 114.30945475 -82.85857186 114.90416228 -85 117 C-86.08686655 118.66464345 -86.08686655 118.66464345 -87.0078125 120.46875 C-87.35457031 121.12230469 -87.70132813 121.77585937 -88.05859375 122.44921875 C-88.41050781 123.12597656 -88.76242188 123.80273438 -89.125 124.5 C-89.48464844 125.17675781 -89.84429687 125.85351562 -90.21484375 126.55078125 C-91.68249524 129.33767003 -93.00230321 132.00690964 -94 135 C-23.71 135 46.58 135 119 135 C111.0925614 118.2371972 111.0925614 118.2371972 102.4375 101.9375 C101.41118411 100.11562993 100.38886102 98.29150317 99.37109375 96.46484375 C98.93724365 95.697771 98.50339355 94.93069824 98.05639648 94.14038086 C97 92 97 92 96 88 C88.08 88 80.16 88 72 88 C75.6133456 94.77962554 75.6133456 94.77962554 79.24023438 101.55200195 C79.91022461 102.81983521 79.91022461 102.81983521 80.59375 104.11328125 C81.28500977 105.40939331 81.28500977 105.40939331 81.99023438 106.73168945 C83 109 83 109 83 112 C36.47 112 -10.06 112 -58 112 C-57.06381367 107.31906836 -55.58123527 103.96463824 -53.3125 99.875 C-52.98572266 99.27429688 -52.65894531 98.67359375 -52.32226562 98.0546875 C-51.22091271 96.03308368 -50.1102569 94.01672677 -49 92 C-46.99477262 88.33617115 -44.99602168 84.66885131 -43 81 C-42.49218994 80.06816895 -41.98437988 79.13633789 -41.46118164 78.17626953 C-33.24362853 63.3494116 -33.24362853 63.3494116 -27.6484375 47.42578125 C-27.01240994 45.04642515 -26.26673352 43.10963514 -25 41 C-24.34 40.67 -23.68 40.34 -23 40 C-22.34786708 37.97536745 -22.34786708 37.97536745 -22 36 C-21.34 36 -20.68 36 -20 36 C-19.79503906 35.30132812 -19.59007812 34.60265625 -19.37890625 33.8828125 C-19.10949219 32.97273438 -18.84007812 32.06265625 -18.5625 31.125 C-18.29566406 30.22007812 -18.02882813 29.31515625 -17.75390625 28.3828125 C-17 26 -17 26 -16 24 C-15.34 24 -14.68 24 -14 24 C-13.896875 23.46375 -13.79375 22.9275 -13.6875 22.375 C-12.81907303 19.37497956 -11.44379704 16.7620465 -10 14 C-9.01 14 -8.02 14 -7 14 C-6.773125 13.175 -6.54625 12.35 -6.3125 11.5 C-4.72573768 7.26863382 -2.49251763 3.74828987 0 0 Z " fill="#FDF9C1" transform="translate(150,136)"/>
<path d="M0 0 C3.5625 0.3125 3.5625 0.3125 5.1027832 1.5402832 C6.78976909 3.58842345 8.12776789 5.69687698 9.48046875 7.98046875 C10.01220703 8.87314453 10.54394531 9.76582031 11.09179688 10.68554688 C11.63900391 11.61431641 12.18621094 12.54308594 12.75 13.5 C13.30880859 14.44037109 13.86761719 15.38074219 14.44335938 16.34960938 C15.82041273 18.66823768 17.19328241 20.98923875 18.5625 23.3125 C18.58755615 22.6512915 18.6126123 21.99008301 18.63842773 21.30883789 C18.75403102 18.33067695 18.87691754 15.3528608 19 12.375 C19.03931641 11.33408203 19.07863281 10.29316406 19.11914062 9.22070312 C19.16103516 8.23134766 19.20292969 7.24199219 19.24609375 6.22265625 C19.28275146 5.30621338 19.31940918 4.38977051 19.35717773 3.44555664 C19.5625 1.3125 19.5625 1.3125 20.5625 0.3125 C22.375 0.1796875 22.375 0.1796875 24.5625 0.1875 C25.284375 0.18492187 26.00625 0.18234375 26.75 0.1796875 C28.5625 0.3125 28.5625 0.3125 29.5625 1.3125 C29.6552833 2.69410115 29.67997043 4.08038038 29.67602539 5.46508789 C29.67594986 6.34592545 29.67587433 7.226763 29.67579651 8.1342926 C29.67063522 9.09157761 29.66547394 10.04886261 29.66015625 11.03515625 C29.6587413 12.01036728 29.65732635 12.98557831 29.65586853 13.99034119 C29.65025133 17.11859143 29.63769593 20.24677123 29.625 23.375 C29.61998722 25.49023334 29.61542393 27.60546781 29.61132812 29.72070312 C29.60027631 34.91799296 29.58352146 40.11524145 29.5625 45.3125 C28.10790179 45.36020559 26.65285672 45.3944339 25.19775391 45.42285156 C23.98244492 45.45357758 23.98244492 45.45357758 22.74258423 45.48492432 C20.5625 45.3125 20.5625 45.3125 18.3984375 43.546875 C17.91632813 42.72703125 17.43421875 41.9071875 16.9375 41.0625 C16.11185547 39.71285156 16.11185547 39.71285156 15.26953125 38.3359375 C14.70621094 37.33820313 14.14289063 36.34046875 13.5625 35.3125 C12.90636719 34.21164063 12.25023437 33.11078125 11.57421875 31.9765625 C9.87244944 29.10503994 8.20505578 26.21817618 6.5625 23.3125 C4.94469843 24.93030157 5.33977853 26.76885518 5.24609375 29.00390625 C5.20419922 29.94814453 5.16230469 30.89238281 5.11914062 31.86523438 C5.07982422 32.85845703 5.04050781 33.85167969 5 34.875 C4.95681641 35.87208984 4.91363281 36.86917969 4.86914062 37.89648438 C4.76269702 40.3683415 4.66068072 42.8403031 4.5625 45.3125 C1.5925 45.3125 -1.3775 45.3125 -4.4375 45.3125 C-4.62954288 39.22557557 -4.8083004 33.13846325 -4.97460938 27.05078125 C-5.03310506 24.97873402 -5.09526739 22.90678699 -5.16113281 20.83496094 C-5.25503115 17.86151369 -5.3358526 14.88795852 -5.4140625 11.9140625 C-5.44625885 10.98381256 -5.4784552 10.05356262 -5.5116272 9.09512329 C-5.53179901 8.23438202 -5.55197083 7.37364075 -5.57275391 6.48681641 C-5.59496002 5.72736725 -5.61716614 4.96791809 -5.64004517 4.18545532 C-5.23663444 0.4550762 -3.44913335 0.31355758 0 0 Z " fill="#242424" transform="translate(213.4375,140.6875)"/>
<path d="M0 0 C1.25200195 -0.0309375 1.25200195 -0.0309375 2.52929688 -0.0625 C8.35845809 -0.09884707 12.63661983 0.78133788 17.9375 3.25 C23.73967082 9.34971804 23.18201029 14.42282251 23.25 22.5 C23.27900391 23.63308594 23.30800781 24.76617187 23.33789062 25.93359375 C23.38664242 32.33132887 23.36470949 36.45048405 18.9375 41.25 C14.56697902 44.41862771 10.75456947 45.37499329 5.42578125 45.3828125 C4.58595703 45.38410156 3.74613281 45.38539063 2.88085938 45.38671875 C2.01267578 45.38285156 1.14449219 45.37898438 0.25 45.375 C-0.62978516 45.37886719 -1.50957031 45.38273437 -2.41601562 45.38671875 C-3.25197266 45.38542969 -4.08792969 45.38414062 -4.94921875 45.3828125 C-5.71451904 45.38168457 -6.47981934 45.38055664 -7.26831055 45.37939453 C-9.0625 45.25 -9.0625 45.25 -10.0625 44.25 C-10.16035341 42.90455673 -10.19047985 41.55407437 -10.19189453 40.20507812 C-10.19504669 39.34748901 -10.19819885 38.4898999 -10.20144653 37.60632324 C-10.1994223 36.67404907 -10.19739807 35.7417749 -10.1953125 34.78125 C-10.19626923 33.83060669 -10.19722595 32.87996338 -10.19821167 31.9005127 C-10.19889357 29.88631118 -10.19703862 27.87210748 -10.19287109 25.85791016 C-10.18752298 22.76329645 -10.19281577 19.6688279 -10.19921875 16.57421875 C-10.19855797 14.62239551 -10.19727681 12.67057236 -10.1953125 10.71875 C-10.19733673 9.78647583 -10.19936096 8.85420166 -10.20144653 7.89367676 C-10.19829437 7.03608765 -10.19514221 6.17849854 -10.19189453 5.29492188 C-10.19109894 4.53626831 -10.19030334 3.77761475 -10.18948364 2.99597168 C-9.84662587 -1.71817852 -3.5658653 0.02133652 0 0 Z M-0.0625 9.25 C-0.0625 18.16 -0.0625 27.07 -0.0625 36.25 C8.10887175 36.9784644 8.10887175 36.9784644 11.46875 34.84375 C13.71146018 30.88321926 13.51848539 27.22444298 13.4375 22.75 C13.45296875 21.89535156 13.4684375 21.04070312 13.484375 20.16015625 C13.46111146 16.43217471 13.32471707 13.93380886 11.46875 10.65625 C8.10887175 8.5215356 8.10887175 8.5215356 -0.0625 9.25 Z " fill="#272727" transform="translate(300.0625,140.75)"/>
<path d="M0 0 C1.93559313 -0.13504138 3.873872 -0.23201129 5.8125 -0.3125 C6.89144531 -0.37050781 7.97039062 -0.42851562 9.08203125 -0.48828125 C12 0 12 0 13.51367188 2.0324707 C15.28842438 5.57585386 16.52619507 9.19588983 17.69921875 12.96875 C17.9391304 13.72667847 18.17904205 14.48460693 18.42622375 15.26550293 C18.92937536 16.86137514 19.42925103 18.45828349 19.92602539 20.05615234 C20.68599783 22.49517898 21.46044302 24.92927637 22.23632812 27.36328125 C22.72483638 28.91899539 23.21249555 30.47497646 23.69921875 32.03125 C23.93041916 32.75534058 24.16161957 33.47943115 24.39982605 34.22546387 C25.53489692 37.91411166 26.27774757 41.13322564 26 45 C25.34 45 24.68 45 24 45 C23.67 46.65 23.34 48.3 23 50 C22.01 49.67 21.02 49.34 20 49 C20 47.68 20 46.36 20 45 C19.071875 44.9071875 19.071875 44.9071875 18.125 44.8125 C17.42375 44.544375 16.7225 44.27625 16 44 C15.34 42.35 14.68 40.7 14 39 C9.05 38.67 4.1 38.34 -1 38 C-1.33 39.98 -1.66 41.96 -2 44 C-3 45 -3 45 -5.06640625 45.09765625 C-5.89011719 45.08605469 -6.71382812 45.07445312 -7.5625 45.0625 C-8.38878906 45.05347656 -9.21507812 45.04445312 -10.06640625 45.03515625 C-10.70449219 45.02355469 -11.34257812 45.01195312 -12 45 C-13.24338108 41.26985677 -12.27411853 39.42542815 -10.99316406 35.82666016 C-9.84053374 32.54614051 -8.80420197 29.23878484 -7.7734375 25.91796875 C-7.5788092 25.29165558 -7.38418091 24.66534241 -7.18365479 24.02005005 C-6.7830785 22.73039731 -6.38299811 21.44059044 -5.98339844 20.15063477 C-5.37066556 18.17351395 -4.75572801 16.19708769 -4.140625 14.22070312 C-3.75132812 12.96580078 -3.36203125 11.71089844 -2.9609375 10.41796875 C-2.60821777 9.28125732 -2.25549805 8.1445459 -1.89208984 6.97338867 C-1.19701003 4.65664619 -0.55547722 2.35305324 0 0 Z M6 14 C4.68 19.28 3.36 24.56 2 30 C5.3 30 8.6 30 12 30 C11.38473563 27.51803547 10.75837346 25.0398437 10.125 22.5625 C9.95097656 21.85544922 9.77695313 21.14839844 9.59765625 20.41992188 C9.12648392 18.59631043 8.56876943 16.79556771 8 15 C7.34 14.67 6.68 14.34 6 14 Z " fill="#292829" transform="translate(178,141)"/>
<path d="M0 0 C4.31161404 2.59513105 6.02809067 5.80010537 7.625 10.5 C8.16273936 14.02050158 8.18621431 17.44446865 8.125 21 C8.14046875 21.89847656 8.1559375 22.79695313 8.171875 23.72265625 C8.13681041 29.74499963 7.14917239 34.52188213 3.625 39.5 C-1.46823076 43.74435897 -5.943891 44.11179052 -12.4921875 43.8984375 C-17.52973006 43.20219178 -20.77656981 41.09843019 -24.375 37.5 C-26.23937685 31.90686945 -26.58901682 27.05725633 -26.625 21.1875 C-26.645625 20.35798828 -26.66625 19.52847656 -26.6875 18.67382812 C-26.72624515 12.53756463 -26.02811958 7.58148784 -21.875 2.7578125 C-15.26433736 -2.23461502 -7.76365891 -3.30647387 0 0 Z M-14.1875 8.875 C-16.93556808 12.63551422 -16.5949983 16.32349598 -16.625 20.8125 C-16.645625 21.57240234 -16.66625 22.33230469 -16.6875 23.11523438 C-16.71957279 27.72970653 -16.39363574 30.76642422 -13.375 34.5 C-11.02627469 35.66977494 -11.02627469 35.66977494 -8.375 35.5 C-4.66238773 33.74886475 -4.66238773 33.74886475 -2.375 30.5 C-2.0856887 27.38182281 -2.09722696 24.25505705 -2.0625 21.125 C-2.03349609 20.26132813 -2.00449219 19.39765625 -1.97460938 18.5078125 C-1.88739636 13.3804482 -1.88739636 13.3804482 -4.203125 8.92578125 C-7.61596922 6.68533495 -10.84834312 6.3418465 -14.1875 8.875 Z " fill="#262626" transform="translate(353.375,142.5)"/>
<path d="M0 0 C2.6015625 -0.29296875 2.6015625 -0.29296875 5.625 -0.1875 C7.12933594 -0.14689453 7.12933594 -0.14689453 8.6640625 -0.10546875 C9.43492187 -0.07066406 10.20578125 -0.03585938 11 0 C13.68774048 6.29247476 15.96408474 12.69944811 18.125 19.1875 C18.50519287 20.32711182 18.50519287 20.32711182 18.89306641 21.48974609 C20.02807358 24.92773153 21.12389069 28.36753168 22.109375 31.8515625 C22.71263897 33.98415355 23.38737931 36.09757471 24.125 38.1875 C25 41 25 41 25 45 C21.7 45 18.4 45 15 45 C14.01 41.535 14.01 41.535 13 38 C8.05 38 3.1 38 -2 38 C-2.66 40.31 -3.32 42.62 -4 45 C-7.3 45 -10.6 45 -14 45 C-13.38149889 39.69260942 -12.18489575 34.85071113 -10.56640625 29.765625 C-10.20940895 28.62586212 -10.20940895 28.62586212 -9.84519958 27.46307373 C-9.34436691 25.86891235 -8.84083147 24.27559779 -8.3347168 22.68310547 C-7.561083 20.2455353 -6.79854702 17.80468512 -6.03710938 15.36328125 C-5.54753181 13.8096887 -5.05731959 12.25629598 -4.56640625 10.703125 C-4.3392543 9.97498596 -4.11210236 9.24684692 -3.87806702 8.49664307 C-2.85792775 5.30752641 -1.87108977 2.80663465 0 0 Z M5 13 C6 16 6 16 6 16 Z M4 17 C3.49487756 18.60256108 2.99608373 20.20711792 2.5 21.8125 C2.2215625 22.70582031 1.943125 23.59914062 1.65625 24.51953125 C0.87211649 27.05573395 0.87211649 27.05573395 1 30 C3.97 30 6.94 30 10 30 C9.68991116 28.39536551 9.37683713 26.79130769 9.0625 25.1875 C8.88847656 24.29417969 8.71445312 23.40085938 8.53515625 22.48046875 C8.02258847 19.88602829 8.02258847 19.88602829 7 17 C6.01 17 5.02 17 4 17 Z " fill="#2A2A2A" transform="translate(261,141)"/>
<path d="M0 0 C0.721875 0.00257813 1.44375 0.00515625 2.1875 0.0078125 C2.909375 0.00523437 3.63125 0.00265625 4.375 0 C6.1875 0.1328125 6.1875 0.1328125 7.1875 1.1328125 C7.32195554 3.38811029 7.39118039 5.64734595 7.43359375 7.90625 C7.46653645 9.3020895 7.49974802 10.69792268 7.53320312 12.09375 C7.58060789 14.30138727 7.62502112 16.50899964 7.66430664 18.71679688 C7.70403695 20.84272517 7.75558408 22.96811719 7.80859375 25.09375 C7.8336499 26.37040527 7.85870605 27.64706055 7.88452148 28.96240234 C7.95022677 32.28935255 7.95022677 32.28935255 10.1875 35.1328125 C13.75519552 35.86887749 13.75519552 35.86887749 17.1875 36.1328125 C17.5175 35.1428125 17.8475 34.1528125 18.1875 33.1328125 C18.5175 33.1328125 18.8475 33.1328125 19.1875 33.1328125 C19.21255615 32.16867432 19.2376123 31.20453613 19.26342773 30.21118164 C19.35735306 26.64593408 19.45760939 23.08088817 19.55981445 19.51586914 C19.60321985 17.97066961 19.64489071 16.42542036 19.68481445 14.88012695 C19.74238199 12.66342154 19.80611424 10.4469677 19.87109375 8.23046875 C19.89616249 7.18826927 19.89616249 7.18826927 19.92173767 6.12501526 C20.07362829 1.24668421 20.07362829 1.24668421 21.1875 0.1328125 C23 0 23 0 25.1875 0.0078125 C25.909375 0.00523437 26.63125 0.00265625 27.375 0 C29.1875 0.1328125 29.1875 0.1328125 30.1875 1.1328125 C30.32567794 3.58361264 30.40060676 6.00422586 30.42578125 8.45703125 C30.433853 9.19605179 30.44192474 9.93507233 30.45024109 10.69648743 C30.46410056 12.26597741 30.47481435 13.83549776 30.48266602 15.4050293 C30.49980685 17.79339955 30.54366383 20.18035937 30.58789062 22.56835938 C30.59802381 24.09373982 30.60653796 25.61913205 30.61328125 27.14453125 C30.63078934 27.85413498 30.64829742 28.56373871 30.66633606 29.29484558 C30.64047241 35.28012148 28.38384833 38.4788916 24.6875 42.9453125 C20.32937259 46.3954967 13.40797587 45.5640692 8.1875 45.1328125 C4.52168241 43.7581309 1.62500173 42.24739805 -0.8125 39.1328125 C-0.8125 38.4728125 -0.8125 37.8128125 -0.8125 37.1328125 C-1.4725 36.8028125 -2.1325 36.4728125 -2.8125 36.1328125 C-2.83715098 31.16658901 -2.85533649 26.20040084 -2.86743164 21.23413086 C-2.8724719 19.54336934 -2.87930405 17.85261221 -2.88793945 16.16186523 C-2.90001857 13.73680543 -2.90573123 11.31180306 -2.91015625 8.88671875 C-2.91531754 8.12629776 -2.92047882 7.36587677 -2.92579651 6.58241272 C-2.92599238 4.7654868 -2.87447277 2.94868123 -2.8125 1.1328125 C-1.8125 0.1328125 -1.8125 0.1328125 0 0 Z " fill="#2A2A2A" transform="translate(403.8125,140.8671875)"/>
<path d="M0 0 C0.721875 0.00257813 1.44375 0.00515625 2.1875 0.0078125 C2.909375 0.00523437 3.63125 0.00265625 4.375 0 C6.1875 0.1328125 6.1875 0.1328125 7.1875 1.1328125 C7.27601529 3.72640572 7.30275945 6.29320941 7.28515625 8.88671875 C7.2837413 9.66216537 7.28232635 10.437612 7.28086853 11.23655701 C7.27525345 13.72284744 7.26269846 16.2090491 7.25 18.6953125 C7.24498694 20.37695183 7.2404237 22.05859256 7.23632812 23.74023438 C7.22612832 27.87115579 7.20655605 32.00188432 7.1875 36.1328125 C14.1175 36.1328125 21.0475 36.1328125 28.1875 36.1328125 C28.1875 39.1028125 28.1875 42.0728125 28.1875 45.1328125 C23.93335377 45.15746872 19.67924502 45.17565149 15.42504883 45.18774414 C13.97679927 45.19278351 12.52855483 45.19961503 11.08032227 45.20825195 C9.00275412 45.22033497 6.92525303 45.22604461 4.84765625 45.23046875 C3.59605713 45.23570557 2.34445801 45.24094238 1.05493164 45.24633789 C-1.8125 45.1328125 -1.8125 45.1328125 -2.8125 44.1328125 C-2.91035341 42.78736923 -2.94047985 41.43688687 -2.94189453 40.08789062 C-2.94504669 39.23030151 -2.94819885 38.3727124 -2.95144653 37.48913574 C-2.9494223 36.55686157 -2.94739807 35.6245874 -2.9453125 34.6640625 C-2.94626923 33.71341919 -2.94722595 32.76277588 -2.94821167 31.7833252 C-2.94889357 29.76912368 -2.94703862 27.75491998 -2.94287109 25.74072266 C-2.93752298 22.64610895 -2.94281577 19.5516404 -2.94921875 16.45703125 C-2.94855797 14.50520801 -2.94727681 12.55338486 -2.9453125 10.6015625 C-2.94733673 9.66928833 -2.94936096 8.73701416 -2.95144653 7.77648926 C-2.94829437 6.91890015 -2.94514221 6.06131104 -2.94189453 5.17773438 C-2.94109894 4.41908081 -2.94030334 3.66042725 -2.93948364 2.87878418 C-2.76304315 0.45280162 -2.42146329 0.17743481 0 0 Z " fill="#2B2B2B" transform="translate(368.8125,140.8671875)"/>
<path d="M0 0 C7.92 0 15.84 0 24 0 C24.33 1.32 24.66 2.64 25 4 C24.01 3.67 23.02 3.34 22 3 C22 2.34 22 1.68 22 1 C15.73 1 9.46 1 3 1 C4.89647615 5.42511102 6.63519094 9.10309686 9.01171875 13.16796875 C10.73364884 16.36000516 11.90384412 19.53845513 13 23 C12.67 23.99 12.34 24.98 12 26 C-34.86 26 -81.72 26 -130 26 C-130 25.01 -130 24.02 -130 23 C-83.47 23.33 -36.94 23.66 11 24 C8.36 18.72 5.72 13.44 3 8 C0 2 0 2 0 0 Z " fill="#E2C945" transform="translate(222,224)"/>
<path d="M0 0 C1.32 0 2.64 0 4 0 C5.6328125 2.1875 5.6328125 2.1875 7.125 5 C8.03338948 6.69440524 8.98105301 8.36968482 10 10 C10.66 10 11.32 10 12 10 C12.33 6.7 12.66 3.4 13 0 C14.65 0.33 16.3 0.66 18 1 C18.33 9.25 18.66 17.5 19 26 C17.35 26.33 15.7 26.66 14 27 C13.51789063 26.13375 13.03578125 25.2675 12.5390625 24.375 C11.59160156 22.704375 11.59160156 22.704375 10.625 21 C9.99851563 19.88625 9.37203125 18.7725 8.7265625 17.625 C7.87191406 16.325625 7.87191406 16.325625 7 15 C6.34 15 5.68 15 5 15 C4.67 18.3 4.34 21.6 4 25 C2.35 24.67 0.7 24.34 -1 24 C-1.02887236 20.18751574 -1.04675492 16.3750593 -1.0625 12.5625 C-1.07087891 11.47388672 -1.07925781 10.38527344 -1.08789062 9.26367188 C-1.09111328 8.22919922 -1.09433594 7.19472656 -1.09765625 6.12890625 C-1.10289307 5.17056885 -1.10812988 4.21223145 -1.11352539 3.22485352 C-1 1 -1 1 0 0 Z " fill="#898989" transform="translate(207,192)"/>
<path d="M0 0 C1.65 0 3.3 0 5 0 C5.9765625 1.79036458 6.953125 3.58072917 7.9296875 5.37109375 C8.91410024 7.16618315 8.91410024 7.16618315 11 8 C11.28875 7.236875 11.5775 6.47375 11.875 5.6875 C13 3 13 3 15 0 C17.475 0.495 17.475 0.495 20 1 C20 8.92 20 16.84 20 25 C18.35 25 16.7 25 15 25 C14.67 20.71 14.34 16.42 14 12 C13.01 13.485 13.01 13.485 12 15 C10.68 15 9.36 15 8 15 C7.34 14.01 6.68 13.02 6 12 C5.67 15.96 5.34 19.92 5 24 C3.35 24.33 1.7 24.66 0 25 C0 16.75 0 8.5 0 0 Z " fill="#AFAFAF" transform="translate(174,192)"/>
<path d="M0 0 C1.05832031 -0.02578125 2.11664063 -0.0515625 3.20703125 -0.078125 C6.51746662 0.2863266 7.83407789 0.94077361 10.1875 3.25 C11.13476967 6.0189421 11.29069079 7.75984376 10.6875 10.625 C9.98255634 13.40055974 9.98255634 13.40055974 10.9375 16.75 C11.1875 20.25 11.1875 20.25 9.5 23.1875 C4.5979206 26.23973811 -0.17031782 25.85575576 -5.8125 25.25 C-7.49766954 23.56483046 -6.94258019 21.46232212 -6.9453125 19.15625 C-6.94724609 17.61130859 -6.94724609 17.61130859 -6.94921875 16.03515625 C-6.94535156 14.95105469 -6.94148438 13.86695313 -6.9375 12.75 C-6.94136719 11.66589844 -6.94523437 10.58179688 -6.94921875 9.46484375 C-6.94792969 8.43488281 -6.94664062 7.40492188 -6.9453125 6.34375 C-6.94418457 5.39177734 -6.94305664 4.43980469 -6.94189453 3.45898438 C-6.6838302 -0.94661199 -3.79320977 0.05504053 0 0 Z M-1.8125 4.25 C-1.8125 6.23 -1.8125 8.21 -1.8125 10.25 C0.4975 10.25 2.8075 10.25 5.1875 10.25 C5.8689823 8.35820797 5.8689823 8.35820797 6.1875 6.25 C4.28994856 3.90026182 4.28994856 3.90026182 1.0625 4.125 C0.11375 4.16625 -0.835 4.2075 -1.8125 4.25 Z M-1.8125 14.25 C-1.8125 16.56 -1.8125 18.87 -1.8125 21.25 C2.32843698 21.45970559 2.32843698 21.45970559 6.1875 20.25 C6.1875 18.6 6.1875 16.95 6.1875 15.25 C3.47870665 13.89560332 1.17816732 14.18498549 -1.8125 14.25 Z " fill="#5E5E5E" transform="translate(281.8125,191.75)"/>
<path d="M0 0 C11.84615385 -0.5982906 11.84615385 -0.5982906 16.375 1.75 C18.91184524 6.82369049 17.84771901 11.52759611 17 17 C17 19.65776566 17.61807057 22.37423517 18 25 C16.35 25 14.7 25 13 25 C12.32880451 23.5437455 11.66318193 22.08492133 11 20.625 C10.62875 19.81289062 10.2575 19.00078125 9.875 18.1640625 C9 16 9 16 9 14 C7.68 14 6.36 14 5 14 C5 17.63 5 21.26 5 25 C3.35 25 1.7 25 0 25 C0 16.75 0 8.5 0 0 Z M5 4 C5 6.31 5 8.62 5 11 C7.91652174 11.16681109 7.91652174 11.16681109 11 11 C11.66 10.34 12.32 9.68 13 9 C13 7.68 13 6.36 13 5 C10.29120665 3.64560332 7.99066732 3.93498549 5 4 Z " fill="#0F0F0F" transform="translate(440,192)"/>
<path d="M0 0 C1.15957207 3.47871621 0.77456651 4.34219645 -0.4375 7.6875 C-0.86869141 8.89986328 -0.86869141 8.89986328 -1.30859375 10.13671875 C-1.65083984 11.05904297 -1.65083984 11.05904297 -2 12 C-2.66 12 -3.32 12 -4 12 C-4.1546875 13.1446875 -4.1546875 13.1446875 -4.3125 14.3125 C-5.07916284 17.30945475 -5.85857186 17.90416228 -8 20 C-9.08686655 21.66464345 -9.08686655 21.66464345 -10.0078125 23.46875 C-10.35457031 24.12230469 -10.70132813 24.77585937 -11.05859375 25.44921875 C-11.41050781 26.12597656 -11.76242188 26.80273438 -12.125 27.5 C-12.48464844 28.17675781 -12.84429687 28.85351562 -13.21484375 29.55078125 C-14.68249524 32.33767003 -16.00230321 35.00690964 -17 38 C53.29 38 123.58 38 196 38 C196.33 37.34 196.66 36.68 197 36 C197 36.99 197 37.98 197 39 C126.05 39 55.1 39 -18 39 C-17.18747913 33.31235391 -16.72106596 30.83461718 -14.19921875 26.09375 C-13.63396484 25.01996094 -13.06871094 23.94617188 -12.48632812 22.83984375 C-11.5959082 21.18662109 -11.5959082 21.18662109 -10.6875 19.5 C-9.81448242 17.84677734 -9.81448242 17.84677734 -8.92382812 16.16015625 C-6.04009276 10.71926938 -3.09705449 5.32234549 0 0 Z " fill="#EDDC7D" transform="translate(73,233)"/>
<path d="M0 0 C2.0625 -0.061875 4.125 -0.12375 6.25 -0.1875 C7.99023438 -0.23970703 7.99023438 -0.23970703 9.765625 -0.29296875 C13.25929337 0.02348672 14.57577085 0.51777494 17 3 C17.94560205 6.17452118 18.32128063 8.11029978 17.1875 11.25 C16 13 16 13 14 15 C14.28875 15.55429688 14.5775 16.10859375 14.875 16.6796875 C15.431875 17.76636719 15.431875 17.76636719 16 18.875 C16.37125 19.59429687 16.7425 20.31359375 17.125 21.0546875 C18 23 18 23 18 25 C16.35 25 14.7 25 13 25 C12.32591692 23.73308493 11.66099503 22.46129251 11 21.1875 C10.443125 20.12595703 10.443125 20.12595703 9.875 19.04296875 C9 17 9 17 9 14 C7.68 14 6.36 14 5 14 C5 17.96 5 21.92 5 26 C3.35 25.67 1.7 25.34 0 25 C0 16.75 0 8.5 0 0 Z M5 4 C5 6.31 5 8.62 5 11 C8.465 10.505 8.465 10.505 12 10 C12.6814823 8.10820797 12.6814823 8.10820797 13 6 C11.10244856 3.65026182 11.10244856 3.65026182 7.875 3.875 C6.92625 3.91625 5.9775 3.9575 5 4 Z " fill="#080808" transform="translate(317,192)"/>
<path d="M0 0 C0.99 0 1.98 0 3 0 C5.3430892 2.55662196 6.51377332 5.0630038 7.625 8.3125 C9.44308245 13.09469351 11.86967713 17.24039255 14.5625 21.5625 C17.89382577 26.92033183 20.38123147 31.84867957 22 38 C20.5 36.625 20.5 36.625 19 35 C19 34.34 19 33.68 19 33 C18.360625 32.7525 17.72125 32.505 17.0625 32.25 C15 31 15 31 14.25 28.875 C14.1675 28.25625 14.085 27.6375 14 27 C13.34 27 12.68 27 12 27 C11.505 23.535 11.505 23.535 11 20 C9.68 19.67 8.36 19.34 7 19 C6.67 16.03 6.34 13.06 6 10 C3.525 9.505 3.525 9.505 1 9 C1 10.65 1 12.3 1 14 C0.360625 14.103125 -0.27875 14.20625 -0.9375 14.3125 C-1.618125 14.539375 -2.29875 14.76625 -3 15 C-3.33 15.99 -3.66 16.98 -4 18 C-4.66 18 -5.32 18 -6 18 C-6.268125 18.9075 -6.53625 19.815 -6.8125 20.75 C-7.92778321 23.80235404 -9.07366947 25.4572437 -11 28 C-12.09840946 30.3016671 -13.04415946 32.63315675 -14 35 C-14.99 35 -15.98 35 -17 35 C-17.268125 35.886875 -17.53625 36.77375 -17.8125 37.6875 C-18.91710819 40.76877548 -20.22849144 43.26221405 -22 46 C-22.33 45.34 -22.66 44.68 -23 44 C-21.94076435 41.5852029 -20.82066764 39.29898003 -19.58984375 36.97265625 C-19.22532608 36.26910507 -18.86080841 35.56555389 -18.48524475 34.84068298 C-17.31009765 32.57732962 -16.12384745 30.31999918 -14.9375 28.0625 C-14.16400678 26.57523715 -13.39121217 25.08761074 -12.61914062 23.59960938 C-8.50265973 15.68365447 -4.31584505 7.80947359 0 0 Z " fill="#E0C239" transform="translate(161,66)"/>
<path d="M0 0 C3.59271912 3.16633048 5.55839473 6.66357663 7.5625 10.9375 C9.94479552 15.93632817 9.94479552 15.93632817 12.77734375 20.69140625 C14 23 14 23 13 27 C-58.61 27 -130.22 27 -204 27 C-204.33 25.68 -204.66 24.36 -205 23 C-204.34 22.67 -203.68 22.34 -203 22 C-203 23.32 -203 24.64 -203 26 C-132.05 26 -61.1 26 12 26 C6.21153886 14.38678784 6.21153886 14.38678784 0 3 C0 2.01 0 1.02 0 0 Z " fill="#FEFDCF" transform="translate(258,246)"/>
<path d="M0 0 C3.21858262 1.85962551 4.65260178 3.30520355 6.3125 6.625 C7.23981877 11.17729216 7.99580061 15.40399717 7 20 C4.20007687 23.64487034 0.51238342 25.122314 -3.9375 25.8125 C-4.948125 25.874375 -5.95875 25.93625 -7 26 C-7 25.34 -7 24.68 -7 24 C-7.639375 23.690625 -8.27875 23.38125 -8.9375 23.0625 C-11 22 -11 22 -12 21 C-12.20740925 18.21182702 -12.32453726 15.47900689 -12.375 12.6875 C-12.41238281 11.91470703 -12.44976562 11.14191406 -12.48828125 10.34570312 C-12.5518996 6.23525112 -12.56765499 4.61864773 -9.6953125 1.48828125 C-6.14753275 -0.47071018 -3.99909706 -0.57129958 0 0 Z M-6.7265625 5.15625 C-8.46771171 7.67717769 -8.39952889 9.45841771 -8.375 12.5 C-8.38273437 13.4590625 -8.39046875 14.418125 -8.3984375 15.40625 C-8.1998392 18.02636393 -8.1998392 18.02636393 -6.640625 19.859375 C-4.97068672 21.28244461 -4.97068672 21.28244461 -2.375 20.75 C-0.0687593 20.22254355 -0.0687593 20.22254355 1 19 C1.12537741 16.85692104 1.17574364 14.70921114 1.1875 12.5625 C1.20167969 11.38816406 1.21585937 10.21382812 1.23046875 9.00390625 C1.31899256 5.88503098 1.31899256 5.88503098 -1 4 C-4.79239947 3.62904385 -4.79239947 3.62904385 -6.7265625 5.15625 Z " fill="#2B2B2B" transform="translate(308,192)"/>
<path d="M0 0 C1.65 0 3.3 0 5 0 C13 19.23404255 13 19.23404255 13 25 C11.35 25 9.7 25 8 25 C7.67 24.01 7.34 23.02 7 22 C4.69 21.67 2.38 21.34 0 21 C-0.33 21.66 -0.66 22.32 -1 23 C-1.66 23.66 -2.32 24.32 -3 25 C-4.32 25 -5.64 25 -7 25 C-6.38574623 19.2073537 -4.84466956 14.05390934 -2.9375 8.5625 C-2.65583984 7.73556641 -2.37417969 6.90863281 -2.08398438 6.05664062 C-1.39482208 4.03587662 -0.6981769 2.01766718 0 0 Z M3 9 C0.4345406 11.5654594 0.45953913 13.47686668 0 17 C1.98 17 3.96 17 6 17 C5.34 14.36 4.68 11.72 4 9 C3.67 9 3.34 9 3 9 Z " fill="#717171" transform="translate(425,192)"/>
<path d="M0 0 C5.61 0 11.22 0 17 0 C17 1.32 17 2.64 17 4 C11.555 4.495 11.555 4.495 6 5 C5.67 6.65 5.34 8.3 5 10 C7.64 10 10.28 10 13 10 C13 11.32 13 12.64 13 14 C10.36 14 7.72 14 5 14 C5 16.31 5 18.62 5 21 C6.95825873 21.02694851 8.91662226 21.04637218 10.875 21.0625 C11.96554688 21.07410156 13.05609375 21.08570313 14.1796875 21.09765625 C16.95177546 21.19744303 16.95177546 21.19744303 19 20 C19 21.65 19 23.3 19 25 C12.73 25 6.46 25 0 25 C0 16.75 0 8.5 0 0 Z " fill="#5A5A5A" transform="translate(154,192)"/>
<path d="M0 0 C1.65 0 3.3 0 5 0 C7.48697085 4.6384559 9.16876039 9.23953579 10.6875 14.25 C10.91244141 14.96929687 11.13738281 15.68859375 11.36914062 16.4296875 C13 21.72378419 13 21.72378419 13 24 C13.66 24.33 14.32 24.66 15 25 C13 26 13 26 10.4375 25.1875 C8 24 8 24 7 22 C4.87423218 21.53348793 4.87423218 21.53348793 2.4375 21.375 C1.61121094 21.30023438 0.78492188 21.22546875 -0.06640625 21.1484375 C-0.70449219 21.09945312 -1.34257812 21.05046875 -2 21 C-2.33 22.32 -2.66 23.64 -3 25 C-4.32 25 -5.64 25 -7 25 C-6.38574623 19.2073537 -4.84466956 14.05390934 -2.9375 8.5625 C-2.65583984 7.73556641 -2.37417969 6.90863281 -2.08398438 6.05664062 C-1.39482208 4.03587662 -0.6981769 2.01766718 0 0 Z M2 8 C1.34 10.97 0.68 13.94 0 17 C1.98 17 3.96 17 6 17 C5.01 14.03 4.02 11.06 3 8 C2.67 8 2.34 8 2 8 Z " fill="#080808" transform="translate(260,192)"/>
<path d="M0 0 C1.65 0 3.3 0 5 0 C7.6085808 5.35645474 9.50613431 10.36258533 10.5078125 16.25 C10.75144531 17.11625 10.75144531 17.11625 11 18 C11.66 18.33 12.32 18.66 13 19 C13 20.98 13 22.96 13 25 C11.35 24.67 9.7 24.34 8 24 C8 23.01 8 22.02 8 21 C6.54054712 21.08708669 5.08234132 21.19526907 3.625 21.3125 C2.81289063 21.37050781 2.00078125 21.42851562 1.1640625 21.48828125 C-1.37921338 21.82990528 -1.37921338 21.82990528 -3 25 C-4.32 25 -5.64 25 -7 25 C-7 22.69 -7 20.38 -7 18 C-6.34 18 -5.68 18 -5 18 C-4.70996094 16.80503906 -4.70996094 16.80503906 -4.4140625 15.5859375 C-1.82776801 5.06151142 -1.82776801 5.06151142 0 0 Z M3 8 C2.01 10.97 1.02 13.94 0 17 C1.98 17 3.96 17 6 17 C5.34 14.03 4.68 11.06 4 8 C3.67 8 3.34 8 3 8 Z " fill="#535353" transform="translate(343,192)"/>
<path d="M0 0 C5.61 0.33 11.22 0.66 17 1 C15.875 8.875 15.875 8.875 13.93359375 11.52734375 C13.53076172 12.09130859 13.12792969 12.65527344 12.71289062 13.23632812 C12.29201172 13.79771484 11.87113281 14.35910156 11.4375 14.9375 C11.01275391 15.52595703 10.58800781 16.11441406 10.15039062 16.72070312 C9.1120372 18.15573089 8.0576415 19.57912809 7 21 C10.3 21.33 13.6 21.66 17 22 C17.33 23.65 17.66 25.3 18 27 C12.06 26.67 6.12 26.34 0 26 C0 20 0 20 1.75 18.0625 C2.86375 17.0415625 2.86375 17.0415625 4 16 C5.60224216 13.72008821 6.76094259 11.52400584 8 9 C7.67 8.01 7.34 7.02 7 6 C4.69 5.67 2.38 5.34 0 5 C0 3.35 0 1.7 0 0 Z " fill="#585858" transform="translate(134,191)"/>
<path d="M0 0 C1.32 0 2.64 0 4 0 C4 5.94 4 11.88 4 18 C4.66 18.33 5.32 18.66 6 19 C7.33333333 19.66666667 8.66666667 20.33333333 10 21 C10.33 20.01 10.66 19.02 11 18 C11.33 18 11.66 18 12 18 C12.495 9.09 12.495 9.09 13 0 C14.32 0 15.64 0 17 0 C17.14539953 3.41621788 17.23409725 6.83163991 17.3125 10.25 C17.35439453 11.21808594 17.39628906 12.18617188 17.43945312 13.18359375 C17.56304821 20.3521089 17.56304821 20.3521089 14.71875 23.625 C11.46357678 25.2712945 8.61952733 25.7161155 5 26 C5 25.34 5 24.68 5 24 C3.02 23.34 1.04 22.68 -1 22 C-0.67 20.68 -0.34 19.36 0 18 C-0.66 18 -1.32 18 -2 18 C-1.84660156 17.48953125 -1.69320313 16.9790625 -1.53515625 16.453125 C-0.83094597 13.2250662 -0.65111796 10.04581999 -0.4375 6.75 C-0.35371094 5.48671875 -0.26992188 4.2234375 -0.18359375 2.921875 C-0.12300781 1.95765625 -0.06242187 0.9934375 0 0 Z " fill="#525252" transform="translate(378,192)"/>
<path d="M0 0 C1.32 0 2.64 0 4 0 C5.65 4.62 7.3 9.24 9 14 C11.2981424 10.1490712 11.2981424 10.1490712 11 6 C11.66 6 12.32 6 13 6 C13.33 4.02 13.66 2.04 14 0 C15.65 0 17.3 0 19 0 C14.39583333 21.60416667 14.39583333 21.60416667 11 25 C8.375 24.625 8.375 24.625 6 24 C4.99093539 20.75274421 3.99434878 17.50178926 3 14.25 C2.57074219 12.86941406 2.57074219 12.86941406 2.1328125 11.4609375 C1.86210937 10.57148438 1.59140625 9.68203125 1.3125 8.765625 C1.06113281 7.94868164 0.80976563 7.13173828 0.55078125 6.29003906 C0 4 0 4 0 0 Z " fill="#2A2A2A" transform="translate(398,192)"/>
<path d="M0 0 C0.33 0 0.66 0 1 0 C1.42589023 5.53657294 -0.094753 9.89665983 -2 15 C-1.505 15.495 -1.505 15.495 -1 16 C-0.95936168 17.66617115 -0.957279 19.33388095 -1 21 C-1.99 20.01 -2.98 19.02 -4 18 C-6.25245881 20.68841859 -7.88213958 22.64641875 -9 26 C-9.66 26 -10.32 26 -11 26 C-11 26.99 -11 27.98 -11 29 C-11.99 29 -12.98 29 -14 29 C-14.20496094 29.763125 -14.40992187 30.52625 -14.62109375 31.3125 C-16.9510015 37.54318814 -20.45185239 43.17902834 -23.74414062 48.9453125 C-24.27330078 49.89148438 -24.80246094 50.83765625 -25.34765625 51.8125 C-25.83242432 52.66457031 -26.31719238 53.51664063 -26.81665039 54.39453125 C-28.12413694 57.27332152 -28.55831091 59.8818109 -29 63 C-29.495 63.99 -29.495 63.99 -30 65 C-30.99 65 -31.98 65 -33 65 C-33.33 65.99 -33.66 66.98 -34 68 C-34.33 67.34 -34.66 66.68 -35 66 C-34.07519531 63.96313477 -34.07519531 63.96313477 -32.578125 61.37890625 C-29.96265729 56.74602905 -27.46255108 52.07847531 -25.046875 47.33984375 C-24.34255763 45.96312027 -23.63821139 44.58641156 -22.93383789 43.2097168 C-22.57661652 42.5106723 -22.21939514 41.81162781 -21.85134888 41.09140015 C-16.01460933 29.67653024 -10.11508729 18.31954925 -3.78515625 7.16796875 C-2.45179784 4.80176816 -1.17679055 2.44599921 0 0 Z " fill="#E4C021" transform="translate(137,112)"/>
<path d="M0 0 C2.475 0.495 2.475 0.495 5 1 C5 7.93 5 14.86 5 22 C8.96 22 12.92 22 17 22 C17.33 23.65 17.66 25.3 18 27 C15.18711295 26.85980308 12.37483115 26.71312045 9.5625 26.5625 C8.76005859 26.52318359 7.95761719 26.48386719 7.13085938 26.44335938 C1.11328125 26.11328125 1.11328125 26.11328125 0 25 C-0.08737645 23.14630389 -0.10698153 21.28932459 -0.09765625 19.43359375 C-0.09443359 18.30888672 -0.09121094 17.18417969 -0.08789062 16.02539062 C-0.07951172 14.84138672 -0.07113281 13.65738281 -0.0625 12.4375 C-0.05798828 11.24962891 -0.05347656 10.06175781 -0.04882812 8.83789062 C-0.03699675 5.89187774 -0.02051287 2.94596319 0 0 Z " fill="#616261" transform="translate(235,191)"/>
<path d="M0 0 C1.29887873 4.19141717 0.42963299 6.8615887 -1 11 C-1.99 12.485 -1.99 12.485 -3 14 C-3.66 14 -4.32 14 -5 14 C-4.95875 15.11375 -4.9175 16.2275 -4.875 17.375 C-5 21 -5 21 -7 23 C-7.4640625 24.2684375 -7.4640625 24.2684375 -7.9375 25.5625 C-8.4634375 26.7690625 -8.4634375 26.7690625 -9 28 C-9.99 28.33 -10.98 28.66 -12 29 C-12.73519522 30.97583715 -13.39072482 32.98177598 -14 35 C-15.375 38.3125 -15.375 38.3125 -17 41 C-18.0209375 41.2475 -18.0209375 41.2475 -19.0625 41.5 C-20.0215625 41.7475 -20.0215625 41.7475 -21 42 C-22.12949221 44.80376352 -22.12949221 44.80376352 -23 48 C-23.9563874 49.69207001 -24.94410931 51.36816893 -26 53 C-26.33 52.34 -26.66 51.68 -27 51 C-25.97119141 48.54833984 -25.97119141 48.54833984 -24.3515625 45.4609375 C-23.7622998 44.33018799 -23.17303711 43.19943848 -22.56591797 42.03442383 C-21.91926548 40.81444613 -21.27228659 39.59464138 -20.625 38.375 C-19.97629028 37.13914424 -19.32801632 35.90305966 -18.68017578 34.66674805 C-14.8529554 27.38646279 -10.95368597 20.14743336 -6.84228516 13.02294922 C-4.38334955 8.75890615 -2.17139023 4.41516013 0 0 Z " fill="#ECD86A" transform="translate(101,180)"/>
<path d="M0 0 C0.33 0.66 0.66 1.32 1 2 C0.3190918 3.90771484 0.3190918 3.90771484 -0.80078125 6.2109375 C-1.40116211 7.46003906 -1.40116211 7.46003906 -2.01367188 8.734375 C-2.44228516 9.60578125 -2.87089844 10.4771875 -3.3125 11.375 C-3.93801758 12.67050781 -3.93801758 12.67050781 -4.57617188 13.9921875 C-6.35779911 17.67478541 -8.16633381 21.34304785 -10 25 C-10.66 25 -11.32 25 -12 25 C-12.309375 26.1446875 -12.309375 26.1446875 -12.625 27.3125 C-14.89543553 33.40139528 -17.485535 40.32369 -23 44 C-24.13862424 46.00021095 -25.19368565 48.04903226 -26.1875 50.125 C-26.71730469 51.22070312 -27.24710937 52.31640625 -27.79296875 53.4453125 C-28.19128906 54.28835937 -28.58960937 55.13140625 -29 56 C-30.31622874 52.05131377 -29.30180315 50.64928624 -27.6875 46.875 C-27.23761719 45.79992187 -26.78773437 44.72484375 -26.32421875 43.6171875 C-25 41 -25 41 -23 40 C-22.34786708 37.97536745 -22.34786708 37.97536745 -22 36 C-21.34 36 -20.68 36 -20 36 C-19.79503906 35.30132812 -19.59007812 34.60265625 -19.37890625 33.8828125 C-19.10949219 32.97273438 -18.84007812 32.06265625 -18.5625 31.125 C-18.29566406 30.22007812 -18.02882812 29.31515625 -17.75390625 28.3828125 C-17 26 -17 26 -16 24 C-15.34 24 -14.68 24 -14 24 C-13.896875 23.46375 -13.79375 22.9275 -13.6875 22.375 C-12.81907303 19.37497956 -11.44379704 16.7620465 -10 14 C-9.01 14 -8.02 14 -7 14 C-6.773125 13.175 -6.54625 12.35 -6.3125 11.5 C-4.72573768 7.26863382 -2.49251763 3.74828987 0 0 Z " fill="#DFBF2D" transform="translate(150,136)"/>
<path d="M0 0 C5.94 0 11.88 0 18 0 C18 1.32 18 2.64 18 4 C15.69 4 13.38 4 11 4 C11 10.93 11 17.86 11 25 C9.68 25 8.36 25 7 25 C7 18.07 7 11.14 7 4 C4.69 4 2.38 4 0 4 C0 2.68 0 1.36 0 0 Z " fill="#484848" transform="translate(357,192)"/>
<path d="M0 0 C0 0.33 0 0.66 0 1 C-1.65 1.33 -3.3 1.66 -5 2 C-3.68 2.66 -2.36 3.32 -1 4 C-2.32 4 -3.64 4 -5 4 C-5.33 4.66 -5.66 5.32 -6 6 C-6.33 6.33 -6.66 6.66 -7 7 C-7.07226502 8.85287502 -7.0838122 10.70833878 -7.0625 12.5625 C-7.05347656 13.57441406 -7.04445313 14.58632812 -7.03515625 15.62890625 C-7.02355469 16.41136719 -7.01195312 17.19382813 -7 18 C-6.34 18.33 -5.68 18.66 -5 19 C-5 19.66 -5 20.32 -5 21 C-3.68 21.33 -2.36 21.66 -1 22 C-2.32 22.33 -3.64 22.66 -5 23 C-3.35 23.33 -1.7 23.66 0 24 C0 24.33 0 24.66 0 25 C-2.31 25.33 -4.62 25.66 -7 26 C-7 25.34 -7 24.68 -7 24 C-7.639375 23.690625 -8.27875 23.38125 -8.9375 23.0625 C-11 22 -11 22 -12 21 C-12.20740925 18.21182702 -12.32453726 15.47900689 -12.375 12.6875 C-12.41238281 11.91470703 -12.44976562 11.14191406 -12.48828125 10.34570312 C-12.55176273 6.24409427 -12.55626936 4.6152244 -9.71484375 1.47265625 C-6.29861045 -0.38046599 -3.8289807 -0.30031221 0 0 Z " fill="#505050" transform="translate(308,192)"/>
<path d="M0 0 C11.84615385 -0.5982906 11.84615385 -0.5982906 16.375 1.75 C18.90491826 6.80983652 17.87929728 11.54139211 17 17 C15.68 15.68 14.36 14.36 13 13 C13.33 12.34 13.66 11.68 14 11 C13.01 11.33 12.02 11.66 11 12 C11.66 9.69 12.32 7.38 13 5 C10.36 4.67 7.72 4.34 5 4 C5 6.31 5 8.62 5 11 C4.67 11 4.34 11 4 11 C4 8.36 4 5.72 4 3 C5.299375 3.020625 6.59875 3.04125 7.9375 3.0625 C9.29165633 3.08399454 10.64756083 3.07148199 12 3 C12.33 2.67 12.66 2.34 13 2 C9.04 1.67 5.08 1.34 1 1 C1 8.59 1 16.18 1 24 C1.99 24 2.98 24 4 24 C4 20.7 4 17.4 4 14 C4.33 14 4.66 14 5 14 C5 17.63 5 21.26 5 25 C3.35 25 1.7 25 0 25 C0 16.75 0 8.5 0 0 Z " fill="#A2A2A2" transform="translate(440,192)"/>
<path d="M0 0 C0.99 0 1.98 0 3 0 C4.75 1.75 4.75 1.75 6 4 C5.6875 6.25 5.6875 6.25 5 8 C4.01 6.35 3.02 4.7 2 3 C-1.91870208 7.98743901 -3.26506407 11.63055528 -4 18 C-4.66 18 -5.32 18 -6 18 C-6.268125 18.9075 -6.53625 19.815 -6.8125 20.75 C-7.92778321 23.80235404 -9.07366947 25.4572437 -11 28 C-12.09840946 30.3016671 -13.04415946 32.63315675 -14 35 C-14.99 35 -15.98 35 -17 35 C-17.268125 35.886875 -17.53625 36.77375 -17.8125 37.6875 C-18.91710819 40.76877548 -20.22849144 43.26221405 -22 46 C-22.33 45.34 -22.66 44.68 -23 44 C-21.94076435 41.5852029 -20.82066764 39.29898003 -19.58984375 36.97265625 C-19.22532608 36.26910507 -18.86080841 35.56555389 -18.48524475 34.84068298 C-17.31009765 32.57732962 -16.12384745 30.31999918 -14.9375 28.0625 C-14.16400678 26.57523715 -13.39121217 25.08761074 -12.61914062 23.59960938 C-8.50265973 15.68365447 -4.31584505 7.80947359 0 0 Z " fill="#F2E594" transform="translate(161,66)"/>
<path d="M0 0 C0.33 0 0.66 0 1 0 C0.67 2.97 0.34 5.94 0 9 C2.64 9 5.28 9 8 9 C7.34 6.03 6.68 3.06 6 0 C6.66 0 7.32 0 8 0 C9.65 4.95 11.3 9.9 13 15 C12.01 15 11.02 15 10 15 C10 14.34 10 13.68 10 13 C7.03 12.67 4.06 12.34 1 12 C0.67 12.66 0.34 13.32 0 14 C-0.66 14.66 -1.32 15.32 -2 16 C-3.32 16 -4.64 16 -6 16 C-5.54177532 12.53058454 -5.10868317 9.32604951 -4 6 C-3.34 6 -2.68 6 -2 6 C-1.34 4.02 -0.68 2.04 0 0 Z " fill="#515151" transform="translate(424,201)"/>
<path d="M0 0 C1.65 0 3.3 0 5 0 C7.1519437 3.22791555 7.20086443 4.28400809 7 8 C6.34 8 5.68 8 5 8 C4.67 13.61 4.34 19.22 4 25 C2.68 25 1.36 25 0 25 C0 16.75 0 8.5 0 0 Z " fill="#444444" transform="translate(174,192)"/>
<path d="M0 0 C1.32 0 2.64 0 4 0 C4 5.94 4 11.88 4 18 C4.66 18.33 5.32 18.66 6 19 C5.67 19.99 5.34 20.98 5 22 C6.98 22 8.96 22 11 22 C11 22.66 11 23.32 11 24 C2.42857143 24.28571429 2.42857143 24.28571429 -1 22 C-0.67 20.68 -0.34 19.36 0 18 C-0.66 18 -1.32 18 -2 18 C-1.84660156 17.48953125 -1.69320313 16.9790625 -1.53515625 16.453125 C-0.83094597 13.2250662 -0.65111796 10.04581999 -0.4375 6.75 C-0.35371094 5.48671875 -0.26992188 4.2234375 -0.18359375 2.921875 C-0.12300781 1.95765625 -0.06242187 0.9934375 0 0 Z " fill="#0F0F0F" transform="translate(378,192)"/>
<path d="M0 0 C5.61 0.33 11.22 0.66 17 1 C15.95175806 8.33769356 15.25065427 9.65943437 11 15 C10.67 14.34 10.34 13.68 10 13 C10.33 12.34 10.66 11.68 11 11 C9.02 11.99 9.02 11.99 7 13 C7.185625 12.401875 7.37125 11.80375 7.5625 11.1875 C8.22093687 8.83591238 8.22093687 8.83591238 7 6 C4.69 5.67 2.38 5.34 0 5 C0 3.35 0 1.7 0 0 Z " fill="#949494" transform="translate(134,191)"/>
<path d="M0 0 C1.32 0 2.64 0 4 0 C4.33 8.25 4.66 16.5 5 25 C3.35 25.33 1.7 25.66 0 26 C-2.09350689 22.5980513 -2.17942163 19.94727588 -2 16 C-1.34 16 -0.68 16 0 16 C0 10.72 0 5.44 0 0 Z " fill="#505050" transform="translate(221,193)"/>
<path d="M0 0 C0.33 1.32 0.66 2.64 1 4 C1.66 4 2.32 4 3 4 C3 3.34 3 2.68 3 2 C3.66 2 4.32 2 5 2 C4.33989524 4.84550012 3.48275034 7.52325999 2.4375 10.25 C2.16808594 10.95640625 1.89867187 11.6628125 1.62109375 12.390625 C1.41613281 12.92171875 1.21117187 13.4528125 1 14 C2.98 14 4.96 14 7 14 C7.33 13.34 7.66 12.68 8 12 C8 12.99 8 13.98 8 15 C5.03 15 2.06 15 -1 15 C-1 15.66 -1 16.32 -1 17 C2.3 17 5.6 17 9 17 C9 17.33 9 17.66 9 18 C8.06027344 18.05607422 8.06027344 18.05607422 7.1015625 18.11328125 C6.28429687 18.17902344 5.46703125 18.24476563 4.625 18.3125 C3.81289063 18.37050781 3.00078125 18.42851562 2.1640625 18.48828125 C-0.37921338 18.82990528 -0.37921338 18.82990528 -2 22 C-3.32 22 -4.64 22 -6 22 C-6 19.69 -6 17.38 -6 15 C-5.34 15 -4.68 15 -4 15 C-3.79503906 14.16855469 -3.59007812 13.33710938 -3.37890625 12.48046875 C-2.97478516 10.85044922 -2.97478516 10.85044922 -2.5625 9.1875 C-2.29566406 8.10855469 -2.02882813 7.02960938 -1.75390625 5.91796875 C-1.23922588 3.9259157 -0.65062825 1.95188476 0 0 Z " fill="#404040" transform="translate(342,195)"/>
<path d="M0 0 C3.88999697 3.39936672 5.9401018 7.22431057 8.25 11.75 C8.61351562 12.44738281 8.97703125 13.14476563 9.3515625 13.86328125 C10.24106197 15.57205654 11.12145867 17.28556498 12 19 C14.34079306 16.65920694 15.56454746 14.29236779 17.125 11.375 C17.66382813 10.37210938 18.20265625 9.36921875 18.7578125 8.3359375 C19.16773438 7.56507812 19.57765625 6.79421875 20 6 C20.33 6.66 20.66 7.32 21 8 C20.2578125 9.8046875 20.2578125 9.8046875 19.125 11.875 C17.6560009 14.57672562 16.6354956 16.98477618 16 20 C15.34 20 14.68 20 14 20 C14 20.66 14 21.32 14 22 C12.68 22.33 11.36 22.66 10 23 C9.76925781 22.38253906 9.53851563 21.76507813 9.30078125 21.12890625 C6.98471618 15.1144606 4.2714527 9.55074351 1 4 C-2.29221377 6.71834165 -3.78758845 10.34615605 -5.5625 14.125 C-8.73091977 20.86545988 -8.73091977 20.86545988 -11 22 C-10.26329519 18.01781182 -8.43720247 14.57947429 -6.625 11 C-6.32078125 10.38382813 -6.0165625 9.76765625 -5.703125 9.1328125 C-4.05334432 5.84735183 -2.3245974 2.85226675 0 0 Z " fill="#FCF5BD" transform="translate(162,114)"/>
<path d="M0 0 C1.65 0 3.3 0 5 0 C10.29779412 10.11397059 10.29779412 10.11397059 9.625 14.375 C9.41875 14.91125 9.2125 15.4475 9 16 C8.34 15.67 7.68 15.34 7 15 C7 15.99 7 16.98 7 18 C4.36 18 1.72 18 -1 18 C-0.835 16.9275 -0.67 15.855 -0.5 14.75 C0.08810915 10.96971248 0.08810915 10.96971248 0 7 C-0.99 7.495 -0.99 7.495 -2 8 C-1.34 5.36 -0.68 2.72 0 0 Z M2 8 C1.34 10.97 0.68 13.94 0 17 C1.98 17 3.96 17 6 17 C5.01 14.03 4.02 11.06 3 8 C2.67 8 2.34 8 2 8 Z " fill="#616161" transform="translate(260,192)"/>
<path d="M0 0 C1.32 0 2.64 0 4 0 C4 8.25 4 16.5 4 25 C2.68 25 1.36 25 0 25 C0 16.75 0 8.5 0 0 Z " fill="#414141" transform="translate(198,192)"/>
<path d="M0 0 C1.32 0 2.64 0 4 0 C4 8.25 4 16.5 4 25 C2.68 25 1.36 25 0 25 C0 16.75 0 8.5 0 0 Z " fill="#424242" transform="translate(461,192)"/>
<path d="M0 0 C2.0625 -0.061875 4.125 -0.12375 6.25 -0.1875 C7.99023438 -0.23970703 7.99023438 -0.23970703 9.765625 -0.29296875 C13.26071628 0.0236156 14.57975604 0.51027536 17 3 C17.875 6.0625 17.875 6.0625 18 9 C17.34 9.66 16.68 10.32 16 11 C15.67 9.02 15.34 7.04 15 5 C14.34 6.32 13.68 7.64 13 9 C12.79375 8.360625 12.5875 7.72125 12.375 7.0625 C11.10461791 4.65074923 11.10461791 4.65074923 7.875 4.25 C6.92625 4.1675 5.9775 4.085 5 4 C5 6.31 5 8.62 5 11 C4.67 11 4.34 11 4 11 C4 8.36 4 5.72 4 3 C5.98 2.67 7.96 2.34 10 2 C7.03 1.67 4.06 1.34 1 1 C1 8.59 1 16.18 1 24 C1.99 24 2.98 24 4 24 C4 20.7 4 17.4 4 14 C4.33 14 4.66 14 5 14 C5 17.96 5 21.92 5 26 C3.35 25.67 1.7 25.34 0 25 C0 16.75 0 8.5 0 0 Z " fill="#CCCCCC" transform="translate(317,192)"/>
<path d="M0 0 C1.65 0 3.3 0 5 0 C3.34701458 7.75631621 1.50971484 15.47085548 -1 23 C-1.66 23.33 -2.32 23.66 -3 24 C-2.67 21.36 -2.34 18.72 -2 16 C-2.66 16.33 -3.32 16.66 -4 17 C-3.67 13.37 -3.34 9.74 -3 6 C-2.34 6 -1.68 6 -1 6 C-0.67 4.02 -0.34 2.04 0 0 Z " fill="#454545" transform="translate(412,192)"/>
<path d="M0 0 C1.32 0 2.64 0 4 0 C4 7.92 4 15.84 4 24 C3.01 24 2.02 24 1 24 C0.92652344 22.28490234 0.92652344 22.28490234 0.8515625 20.53515625 C0.77654811 19.04424527 0.70099972 17.55336108 0.625 16.0625 C0.5940625 15.30775391 0.563125 14.55300781 0.53125 13.77539062 C0.4273685 11.84492605 0.22104386 9.92057919 0 8 C-0.66 7.67 -1.32 7.34 -2 7 C-1.125 2.25 -1.125 2.25 0 0 Z " fill="#1C1C1C" transform="translate(189,192)"/>
<path d="M0 0 C0.33 0.66 0.66 1.32 1 2 C0.01989702 4.32735564 -1.02612023 6.51345047 -2.1875 8.75 C-2.53756104 9.44013184 -2.88762207 10.13026367 -3.24829102 10.84130859 C-5.47551101 15.18721981 -7.80169016 19.47272488 -10.171875 23.7421875 C-10.71175049 24.71704102 -11.25162598 25.69189453 -11.80786133 26.69628906 C-12.87963544 28.62243171 -13.95998184 30.54383373 -15.04956055 32.45996094 C-17.58584338 37.00483534 -19.54218908 40.72268862 -20 46 C-20.33 46.66 -20.66 47.32 -21 48 C-21.99 48 -22.98 48 -24 48 C-24.33 48.99 -24.66 49.98 -25 51 C-25.33 50.34 -25.66 49.68 -26 49 C-25.09057617 46.99169922 -25.09057617 46.99169922 -23.60546875 44.4296875 C-20.89551531 39.62991443 -18.31017377 34.78904665 -15.80078125 29.8828125 C-15.43596649 29.17187439 -15.07115173 28.46093628 -14.69528198 27.72845459 C-13.1814344 24.77737858 -11.67051779 21.82480686 -10.15991211 18.87207031 C-9.04162399 16.68741885 -7.92128097 14.50383026 -6.80078125 12.3203125 C-6.29445915 11.32803146 -6.29445915 11.32803146 -5.77790833 10.31570435 C-3.97118445 6.79642031 -2.08004322 3.3652372 0 0 Z " fill="#FDF5BD" transform="translate(128,129)"/>
<path d="M0 0 C0.33 0.99 0.66 1.98 1 3 C0.33333333 4.33333333 -0.33333333 5.66666667 -1 7 C-0.67 7.99 -0.34 8.98 0 10 C0.66 10.33 1.32 10.66 2 11 C2.625 14.0625 2.625 14.0625 3 17 C1.35 17 -0.3 17 -2 17 C-2.67119549 15.5437455 -3.33681807 14.08492133 -4 12.625 C-4.37125 11.81289062 -4.7425 11.00078125 -5.125 10.1640625 C-6 8 -6 8 -6 6 C-7.65 6 -9.3 6 -11 6 C-11 5.01 -11 4.02 -11 3 C-10.06027344 3.05220703 -10.06027344 3.05220703 -9.1015625 3.10546875 C-8.28429687 3.13253906 -7.46703125 3.15960938 -6.625 3.1875 C-5.40683594 3.23970703 -5.40683594 3.23970703 -4.1640625 3.29296875 C-3.44992187 3.19628906 -2.73578125 3.09960938 -2 3 C-1.34 2.01 -0.68 1.02 0 0 Z " fill="#2A2A2A" transform="translate(455,200)"/>
<path d="M0 0 C0.33 0.66 0.66 1.32 1 2 C0.3190918 3.90771484 0.3190918 3.90771484 -0.80078125 6.2109375 C-1.40116211 7.46003906 -1.40116211 7.46003906 -2.01367188 8.734375 C-2.44228516 9.60578125 -2.87089844 10.4771875 -3.3125 11.375 C-3.93801758 12.67050781 -3.93801758 12.67050781 -4.57617188 13.9921875 C-6.35779911 17.67478541 -8.16633381 21.34304785 -10 25 C-10.66 25 -11.32 25 -12 25 C-12.20625 25.763125 -12.4125 26.52625 -12.625 27.3125 C-14.55894391 32.49898594 -17.2785146 37.19033084 -20 42 C-20.69921875 40.36328125 -20.69921875 40.36328125 -21 38 C-19.76953125 35.35546875 -19.76953125 35.35546875 -17.8125 32.1875 C-13.17419698 24.48973174 -9.06419555 16.54502516 -4.95043945 8.55737305 C-4.4524585 7.59355713 -3.95447754 6.62974121 -3.44140625 5.63671875 C-2.99482666 4.76748779 -2.54824707 3.89825684 -2.08813477 3.00268555 C-1 1 -1 1 0 0 Z " fill="#FAF2B0" transform="translate(150,136)"/>
<path d="M0 0 C7.92 0 15.84 0 24 0 C24.33 1.32 24.66 2.64 25 4 C24.01 3.67 23.02 3.34 22 3 C22 2.34 22 1.68 22 1 C15.73 1 9.46 1 3 1 C4.89707175 5.42650076 6.62753104 9.10430277 9.015625 13.1640625 C10.93272745 16.73961073 13 20.91431769 13 25 C12.34 25 11.68 25 11 25 C10.79246094 24.42894531 10.58492187 23.85789063 10.37109375 23.26953125 C7.89721335 16.75877488 4.79293578 10.74875954 1.390625 4.6875 C0 2 0 2 0 0 Z " fill="#DEC135" transform="translate(222,224)"/>
<path d="M0 0 C1.15957207 3.47871621 0.77456651 4.34219645 -0.4375 7.6875 C-0.86869141 8.89986328 -0.86869141 8.89986328 -1.30859375 10.13671875 C-1.65083984 11.05904297 -1.65083984 11.05904297 -2 12 C-2.66 12 -3.32 12 -4 12 C-4.1546875 13.1446875 -4.1546875 13.1446875 -4.3125 14.3125 C-5.0812944 17.3177872 -5.85490908 17.89422646 -8 20 C-8.79775975 21.23712022 -9.55033946 22.50423815 -10.26171875 23.79296875 C-10.85629883 24.8612793 -10.85629883 24.8612793 -11.46289062 25.95117188 C-11.86701172 26.68916016 -12.27113281 27.42714844 -12.6875 28.1875 C-13.10322266 28.93708984 -13.51894531 29.68667969 -13.94726562 30.45898438 C-14.96937725 32.30348466 -15.9852981 34.1514131 -17 36 C-17.33 35.34 -17.66 34.68 -18 34 C-16.8918457 31.40551758 -16.8918457 31.40551758 -15.17578125 28.14453125 C-14.87310837 27.56466965 -14.57043549 26.98480804 -14.2585907 26.38737488 C-13.28398855 24.52507508 -12.29827281 22.66890658 -11.3125 20.8125 C-10.66661459 19.58044647 -10.021424 18.34802842 -9.37695312 17.11523438 C-6.35415406 11.34988612 -3.28812553 5.61894868 0 0 Z " fill="#FDF8C3" transform="translate(73,233)"/>
<path d="M0 0 C-1.8485495 5.08612207 -4.41705348 9.78710854 -6.9375 14.5625 C-7.38029297 15.41263672 -7.82308594 16.26277344 -8.27929688 17.13867188 C-8.71177734 17.96044922 -9.14425781 18.78222656 -9.58984375 19.62890625 C-9.98034912 20.37213135 -10.37085449 21.11535645 -10.77319336 21.88110352 C-12 24 -12 24 -15 28 C-14.34 24.04 -13.68 20.08 -13 16 C-11.68 15.67 -10.36 15.34 -9 15 C-8.814375 14.1028125 -8.814375 14.1028125 -8.625 13.1875 C-8 11 -8 11 -6 8 C-5.67 6.80375 -5.34 5.6075 -5 4.375 C-4.67 3.26125 -4.34 2.1475 -4 1 C-2 0 -2 0 0 0 Z " fill="#E0C02C" transform="translate(106,219)"/>
<path d="M0 0 C1.30036344 2.25913887 2.58585478 4.5076535 3.7890625 6.8203125 C4.23056641 7.66464844 4.67207031 8.50898438 5.12695312 9.37890625 C5.57876953 10.25160156 6.03058594 11.12429687 6.49609375 12.0234375 C6.95951172 12.91160156 7.42292969 13.79976562 7.90039062 14.71484375 C9.03965103 16.89940495 10.17559598 19.08562358 11.30859375 21.2734375 C10.31859375 21.7684375 10.31859375 21.7684375 9.30859375 22.2734375 C7.46843877 18.9855397 5.63764328 15.69252424 3.80859375 12.3984375 C3.28394531 11.46128906 2.75929687 10.52414063 2.21875 9.55859375 C1.72246094 8.66269531 1.22617188 7.76679688 0.71484375 6.84375 C0.25400391 6.01633301 -0.20683594 5.18891602 -0.68164062 4.33642578 C-1.69140625 2.2734375 -1.69140625 2.2734375 -1.69140625 0.2734375 C-9.61140625 0.2734375 -17.53140625 0.2734375 -25.69140625 0.2734375 C-25.69140625 -0.0565625 -25.69140625 -0.3865625 -25.69140625 -0.7265625 C-21.75556436 -1.0100822 -17.81826916 -1.24760807 -13.87890625 -1.4765625 C-12.75935547 -1.55777344 -11.63980469 -1.63898438 -10.48632812 -1.72265625 C-9.41318359 -1.78066406 -8.34003906 -1.83867187 -7.234375 -1.8984375 C-5.74973755 -1.9927002 -5.74973755 -1.9927002 -4.23510742 -2.08886719 C-1.69140625 -1.7265625 -1.69140625 -1.7265625 0 0 Z " fill="#F6F0B1" transform="translate(247.69140625,223.7265625)"/>
<path d="M0 0 C4.21122418 4.70253367 6.87420768 10.12084164 9.75 15.6875 C10.25660156 16.64978516 10.76320313 17.61207031 11.28515625 18.60351562 C15 25.73781798 15 25.73781798 15 28 C13.68 28 12.36 28 11 28 C10.87625 27.113125 10.7525 26.22625 10.625 25.3125 C10.05587264 22.29612498 9.23385564 19.79673946 8 17 C7.34 17 6.68 17 6 17 C5.566875 15.783125 5.13375 14.56625 4.6875 13.3125 C3.72583625 10.71600788 2.77197483 8.62840342 1.3125 6.25 C0 4 0 4 0 0 Z " fill="#E1C33B" transform="translate(247,228)"/>
<path d="M0 0 C0.66 0.33 1.32 0.66 2 1 C-1.465 7.435 -1.465 7.435 -5 14 C-8.28698449 10.71301551 -9.93295361 8.13409279 -12 4 C-11.67 3.01 -11.34 2.02 -11 1 C-10.67 1.99 -10.34 2.98 -10 4 C-9.01 4 -8.02 4 -7 4 C-6.01 5.485 -6.01 5.485 -5 7 C-4.67 6.01 -4.34 5.02 -4 4 C-2.70644173 2.62804426 -1.37701298 1.28817344 0 0 Z " fill="#E5BF22" transform="translate(180,120)"/>
<path d="M0 0 C6.57752981 6.57752981 10.48833452 15.13529831 13 24 C11.5 22.625 11.5 22.625 10 21 C10 20.34 10 19.68 10 19 C9.360625 18.7525 8.72125 18.505 8.0625 18.25 C6 17 6 17 5.25 14.875 C5.12625 13.946875 5.12625 13.946875 5 13 C4.34 13 3.68 13 3 13 C2.01 8.71 1.02 4.42 0 0 Z " fill="#F0E38D" transform="translate(170,80)"/>
<path d="M0 0 C1.22596039 3.67788118 0.84310077 4.78449613 0 9 C3.63 9.33 7.26 9.66 11 10 C10.67 10.99 10.34 11.98 10 13 C7.03 12.67 4.06 12.34 1 12 C0.67 13.32 0.34 14.64 0 16 C-1.32 16 -2.64 16 -4 16 C-3.39891424 10.34979382 -1.92471317 5.33835539 0 0 Z " fill="#7E7E7D" transform="translate(257,201)"/>
<path d="M0 0 C2.475 0.99 2.475 0.99 5 2 C5.8125 4.625 5.8125 4.625 6 7 C4.68 6.67 3.36 6.34 2 6 C2 11.61 2 17.22 2 23 C1.34 23 0.68 23 0 23 C0 15.41 0 7.82 0 0 Z " fill="#0C0C0D" transform="translate(208,193)"/>
<path d="M0 0 C1.69059989 2.53589984 2.56297524 4.30376017 3.5078125 7.125 C3.77207031 7.91390625 4.03632813 8.7028125 4.30859375 9.515625 C4.57800781 10.33546875 4.84742188 11.1553125 5.125 12 C5.40214844 12.81984375 5.67929687 13.6396875 5.96484375 14.484375 C6.22652344 15.27328125 6.48820312 16.0621875 6.7578125 16.875 C6.9964502 17.59429687 7.23508789 18.31359375 7.48095703 19.0546875 C8 21 8 21 8 24 C6.35 24 4.7 24 3 24 C3.33 23.01 3.66 22.02 4 21 C4 21.66 4 22.32 4 23 C4.66 22.67 5.32 22.34 6 22 C5.71125 21.15695313 5.4225 20.31390625 5.125 19.4453125 C4.75375 18.34960938 4.3825 17.25390625 4 16.125 C3.62875 15.03445312 3.2575 13.94390625 2.875 12.8203125 C2 10 2 10 2 8 C1.34 8 0.68 8 0 8 C0.33 10.31 0.66 12.62 1 15 C0.34 14.67 -0.32 14.34 -1 14 C-1.6328125 11.71484375 -1.6328125 11.71484375 -2.125 8.9375 C-2.29257812 8.01839844 -2.46015625 7.09929687 -2.6328125 6.15234375 C-2.75398438 5.44207031 -2.87515625 4.73179687 -3 4 C-2.34 4 -1.68 4 -1 4 C-0.67 2.68 -0.34 1.36 0 0 Z " fill="#939393" transform="translate(430,193)"/>
<path d="M0 0 C1.29887873 4.19141717 0.42963299 6.8615887 -1 11 C-1.99 12.485 -1.99 12.485 -3 14 C-3.99 14 -4.98 14 -6 14 C-6.99 16.97 -7.98 19.94 -9 23 C-9.66 23 -10.32 23 -11 23 C-9.44347945 17.6462535 -7.0182491 12.99849053 -4.375 8.125 C-3.95476562 7.34125 -3.53453125 6.5575 -3.1015625 5.75 C-2.0718978 3.83107943 -1.03652433 1.91522397 0 0 Z " fill="#F1E289" transform="translate(101,180)"/>
<path d="M0 0 C1.32 0 2.64 0 4 0 C4 5.94 4 11.88 4 18 C4.66 18.33 5.32 18.66 6 19 C5.01 19 4.02 19 3 19 C3 13.06 3 7.12 3 1 C2.34 1 1.68 1 1 1 C1 7.6 1 14.2 1 21 C0.34 21.33 -0.32 21.66 -1 22 C-0.67 20.68 -0.34 19.36 0 18 C-0.66 18 -1.32 18 -2 18 C-1.84660156 17.48953125 -1.69320313 16.9790625 -1.53515625 16.453125 C-0.83094597 13.2250662 -0.65111796 10.04581999 -0.4375 6.75 C-0.35371094 5.48671875 -0.26992188 4.2234375 -0.18359375 2.921875 C-0.12300781 1.95765625 -0.06242187 0.9934375 0 0 Z " fill="#939393" transform="translate(378,192)"/>
<path d="M0 0 C2.67710191 1.33855096 2.95129094 2.72058088 4.125 5.4375 C4.47820312 6.24058594 4.83140625 7.04367188 5.1953125 7.87109375 C6 10 6 10 6 12 C4.35 12 2.7 12 1 12 C0.30034557 10.73581754 -0.38434763 9.46334598 -1.0625 8.1875 C-1.44535156 7.47980469 -1.82820313 6.77210938 -2.22265625 6.04296875 C-3 4 -3 4 -2 1 C-1.67 1.33 -1.34 1.66 -1 2 C-0.67 1.34 -0.34 0.68 0 0 Z " fill="#626262" transform="translate(329,205)"/>
<path d="M0 0 C1.32 0 2.64 0 4 0 C5.03004293 2.78858 6.04930997 5.58030288 7.0625 8.375 C7.35705078 9.1690625 7.65160156 9.963125 7.95507812 10.78125 C8.22900391 11.54179687 8.50292969 12.30234375 8.78515625 13.0859375 C9.04176025 13.7876709 9.29836426 14.4894043 9.56274414 15.21240234 C10 17 10 17 9 19 C8.32694982 17.39850114 7.66177773 15.79368971 7 14.1875 C6.62875 13.29417969 6.2575 12.40085938 5.875 11.48046875 C5 9 5 9 5 6 C4.34 6 3.68 6 3 6 C3 7.65 3 9.3 3 11 C0.43383368 7.15075052 0.44902324 4.5650696 0 0 Z " fill="#7E7E7E" transform="translate(398,192)"/>
<path d="M0 0 C2.3125 -0.3125 2.3125 -0.3125 5 0 C6.875 2.1875 6.875 2.1875 8 5 C7.6875 7.8125 7.6875 7.8125 7 10 C6.67 10 6.34 10 6 10 C5.67 8.02 5.34 6.04 5 4 C4.34 5.32 3.68 6.64 3 8 C2.79375 7.360625 2.5875 6.72125 2.375 6.0625 C1.10461791 3.65074923 1.10461791 3.65074923 -2.125 3.25 C-3.07375 3.1675 -4.0225 3.085 -5 3 C-5 5.31 -5 7.62 -5 10 C-5.33 10 -5.66 10 -6 10 C-6 7.36 -6 4.72 -6 2 C-4.02 1.67 -2.04 1.34 0 1 C0 0.67 0 0.34 0 0 Z " fill="#848484" transform="translate(327,193)"/>
<path d="M0 0 C0.66 0.33 1.32 0.66 2 1 C-5.29840547 15.78132118 -5.29840547 15.78132118 -9 22 C-10.1092904 18.67212881 -10.01557588 17.3006216 -9 14 C-8.01 13.34 -7.02 12.68 -6 12 C-5.28293018 10.01751285 -4.61709587 8.01584651 -4 6 C-3.34 5.01 -2.68 4.02 -2 3 C-1.34 3 -0.68 3 0 3 C0 2.01 0 1.02 0 0 Z " fill="#DEBF2C" transform="translate(152,128)"/>
<path d="M0 0 C0.66 0 1.32 0 2 0 C3.85776765 3.13498292 4.20140476 5.37471432 4 9 C3.67 8.01 3.34 7.02 3 6 C1.68 6.99 0.36 7.98 -1 9 C-1 7.35 -1 5.7 -1 4 C-3.64 3.67 -6.28 3.34 -9 3 C-9 5.31 -9 7.62 -9 10 C-9.33 10 -9.66 10 -10 10 C-10 7.36 -10 4.72 -10 2 C-2.25 1.875 -2.25 1.875 0 3 C0 2.01 0 1.02 0 0 Z " fill="#7F7F7F" transform="translate(289,203)"/>
<path d="M0 0 C0.38800781 0.48082031 0.77601563 0.96164063 1.17578125 1.45703125 C3.54088647 3.45749498 5.12691453 3.48876068 8.1875 3.6875 C9.08855469 3.75324219 9.98960937 3.81898438 10.91796875 3.88671875 C11.60503906 3.92410156 12.29210937 3.96148437 13 4 C13 4.33 13 4.66 13 5 C12.37351562 5.03738281 11.74703125 5.07476562 11.1015625 5.11328125 C9.87566406 5.21189453 9.87566406 5.21189453 8.625 5.3125 C7.81289063 5.37050781 7.00078125 5.42851562 6.1640625 5.48828125 C3.62078662 5.82990528 3.62078662 5.82990528 2 9 C0.68 9 -0.64 9 -2 9 C-2 6.69 -2 4.38 -2 2 C-1.34 2 -0.68 2 0 2 C0 1.34 0 0.68 0 0 Z " fill="#898989" transform="translate(338,208)"/>
<path d="M0 0 C3.89625492 3.89625492 4.16734052 6.62955692 4.4375 12 C4.43359375 14.6484375 4.43359375 14.6484375 4 17 C1 19.625 1 19.625 -2 21 C-1.67 19.68 -1.34 18.36 -1 17 C-0.34 17 0.32 17 1 17 C0.67 11.39 0.34 5.78 0 0 Z " fill="#8E8E8E" transform="translate(311,195)"/>
<path d="M0 0 C4.95 0 9.9 0 15 0 C15 1.98 15 3.96 15 6 C14.34 6 13.68 6 13 6 C12.67 4.68 12.34 3.36 12 2 C8.04 2 4.08 2 0 2 C0 1.34 0 0.68 0 0 Z " fill="#060606" transform="translate(135,193)"/>
<path d="M0 0 C0.66 0 1.32 0 2 0 C3.65 4.95 5.3 9.9 7 15 C6.01 15 5.02 15 4 15 C3.87625 14.195625 3.7525 13.39125 3.625 12.5625 C3.315625 11.2940625 3.315625 11.2940625 3 10 C2.34 9.67 1.68 9.34 1 9 C0.5859375 6.93359375 0.5859375 6.93359375 0.375 4.4375 C0.30023438 3.61121094 0.22546875 2.78492188 0.1484375 1.93359375 C0.09945313 1.29550781 0.05046875 0.65742188 0 0 Z " fill="#080808" transform="translate(430,201)"/>
<path d="M0 0 C1.12148437 0.00322266 2.24296875 0.00644531 3.3984375 0.00976562 C4.5740625 0.01814453 5.7496875 0.02652344 6.9609375 0.03515625 C8.14429688 0.03966797 9.32765625 0.04417969 10.546875 0.04882812 C13.47661257 0.06064158 16.40625022 0.07711367 19.3359375 0.09765625 C19.3359375 0.42765625 19.3359375 0.75765625 19.3359375 1.09765625 C11.4159375 1.09765625 3.4959375 1.09765625 -4.6640625 1.09765625 C-4.3340625 3.40765625 -4.0040625 5.71765625 -3.6640625 8.09765625 C-7.6640625 3.34765625 -7.6640625 3.34765625 -7.6640625 1.09765625 C-5.00228029 -0.23323485 -2.97666854 -0.01503368 0 0 Z " fill="#FDFCD4" transform="translate(226.6640625,221.90234375)"/>
<path d="M0 0 C0.66 0.33 1.32 0.66 2 1 C2 1.66 2 2.32 2 3 C2.66 3.33 3.32 3.66 4 4 C4.625 7.0625 4.625 7.0625 5 10 C3.35 10 1.7 10 0 10 C-0.66 7.69 -1.32 5.38 -2 3 C-1.01 3.33 -0.02 3.66 1 4 C0.67 2.68 0.34 1.36 0 0 Z " fill="#7D7D7D" transform="translate(453,207)"/>
<path d="M0 0 C8.625 -0.25 8.625 -0.25 12 2 C11.04287109 2.07347656 11.04287109 2.07347656 10.06640625 2.1484375 C9.24011719 2.22320312 8.41382813 2.29796875 7.5625 2.375 C6.73878906 2.44460937 5.91507812 2.51421875 5.06640625 2.5859375 C4.38449219 2.72257813 3.70257813 2.85921875 3 3 C1.78306124 5.43387753 1.68040104 7.41838846 1.4375 10.125 C1.35371094 11.03507813 1.26992188 11.94515625 1.18359375 12.8828125 C1.12300781 13.58148438 1.06242187 14.28015625 1 15 C0.67 15 0.34 15 0 15 C0 10.05 0 5.1 0 0 Z " fill="#050505" transform="translate(318,193)"/>
<path d="M0 0 C1.258125 -0.020625 2.51625 -0.04125 3.8125 -0.0625 C4.52019531 -0.07410156 5.22789062 -0.08570313 5.95703125 -0.09765625 C8 0 8 0 11 1 C10.67 1.66 10.34 2.32 10 3 C7.36 2.67 4.72 2.34 2 2 C2.04125 3.093125 2.0825 4.18625 2.125 5.3125 C2 9 2 9 0 12 C0 8.04 0 4.08 0 0 Z " fill="#020202" transform="translate(442,193)"/>
<path d="M0 0 C0.33 0 0.66 0 1 0 C1 2.97 1 5.94 1 9 C-2.96 8.67 -6.92 8.34 -11 8 C-11 7.67 -11 7.34 -11 7 C-7.7 6.34 -4.4 5.68 -1 5 C-0.67 3.35 -0.34 1.7 0 0 Z " fill="#626262" transform="translate(332,196)"/>
<path d="M0 0 C1.65 0 3.3 0 5 0 C5.66 2.64 6.32 5.28 7 8 C6.01 8 5.02 8 4 8 C4 7.01 4 6.02 4 5 C3.34 5 2.68 5 2 5 C2 5.66 2 6.32 2 7 C1.34 7 0.68 7 0 7 C0 4.69 0 2.38 0 0 Z " fill="#2B2B2B" transform="translate(343,192)"/>
<path d="M0 0 C0.33 0 0.66 0 1 0 C0.65087282 8.16957606 0.65087282 8.16957606 -1.8125 11.3125 C-2.534375 11.869375 -3.25625 12.42625 -4 13 C-5.11375 14.11375 -5.11375 14.11375 -6.25 15.25 C-6.8275 15.8275 -7.405 16.405 -8 17 C-6.51095825 13.10391502 -4.75621287 9.40902982 -2.875 5.6875 C-2.06675781 4.08455078 -2.06675781 4.08455078 -1.2421875 2.44921875 C-0.62730469 1.23685547 -0.62730469 1.23685547 0 0 Z " fill="#E0C136" transform="translate(116,154)"/>
<path d="M0 0 C1.15957207 3.47871621 0.77456651 4.34219645 -0.4375 7.6875 C-0.72496094 8.49574219 -1.01242188 9.30398437 -1.30859375 10.13671875 C-1.53675781 10.75160156 -1.76492187 11.36648437 -2 12 C-2.66 12 -3.32 12 -4 12 C-4.33 13.65 -4.66 15.3 -5 17 C-5.66 16.67 -6.32 16.34 -7 16 C-5.26017005 10.18738629 -3.1889511 5.16830006 0 0 Z " fill="#EDDE7E" transform="translate(73,233)"/>
<path d="M0 0 C1.31223496 3.93670488 0.24296256 6.12488144 -1 10 C-2.65 9.67 -4.3 9.34 -6 9 C-5.67 7.68 -5.34 6.36 -5 5 C-4.67 5 -4.34 5 -4 5 C-3.67 4.34 -3.34 3.68 -3 3 C-2.01979625 1.9805881 -1.02196992 0.97753644 0 0 Z " fill="#393939" transform="translate(410,207)"/>
<path d="M0 0 C0.66 0 1.32 0 2 0 C2.125 2.375 2.125 2.375 2 5 C1.34 5.66 0.68 6.32 0 7 C-0.99 7 -1.98 7 -3 7 C-3 6.34 -3 5.68 -3 5 C-5.64 5 -8.28 5 -11 5 C-11 4.67 -11 4.34 -11 4 C-7.7 3.67 -4.4 3.34 -1 3 C-0.67 2.01 -0.34 1.02 0 0 Z " fill="#3E3E3E" transform="translate(290,209)"/>
<path d="M0 0 C1.65 0 3.3 0 5 0 C4.67 1.98 4.34 3.96 4 6 C3.01 5.67 2.02 5.34 1 5 C0.01 5.99 -0.98 6.98 -2 8 C-1.34 5.36 -0.68 2.72 0 0 Z " fill="#545454" transform="translate(260,192)"/>
<path d="M0 0 C0.33 0 0.66 0 1 0 C1 1.65 1 3.3 1 5 C0.34 5 -0.32 5 -1 5 C-1.33 6.65 -1.66 8.3 -2 10 C-2.99 9.67 -3.98 9.34 -5 9 C-5 7.68 -5 6.36 -5 5 C-5.99 4.67 -6.98 4.34 -8 4 C-5.36 4 -2.72 4 0 4 C0 2.68 0 1.36 0 0 Z " fill="#A0A0A0" transform="translate(203,181)"/>
<path d="M0 0 C3.03920174 3.03920174 3.44265837 3.73410982 4.1875 7.6875 C4.34605469 8.49574219 4.50460938 9.30398437 4.66796875 10.13671875 C4.77753906 10.75160156 4.88710937 11.36648437 5 12 C3.68 11.67 2.36 11.34 1 11 C0.67 7.37 0.34 3.74 0 0 Z " fill="#EBCF57" transform="translate(167,74)"/>
<path d="M0 0 C0.33 0 0.66 0 1 0 C1 1.98 1 3.96 1 6 C0.01 6 -0.98 6 -2 6 C-2.4021875 7.3303125 -2.4021875 7.3303125 -2.8125 8.6875 C-3.91710819 11.76877548 -5.22849144 14.26221405 -7 17 C-7.33 16.34 -7.66 15.68 -8 15 C-6.75874818 12.38838269 -5.4689476 9.89498214 -4.0625 7.375 C-3.48338867 6.31539063 -3.48338867 6.31539063 -2.89257812 5.234375 C-1.93551304 3.48566349 -0.96865969 1.74231568 0 0 Z " fill="#F9EEAA" transform="translate(137,112)"/>
<path d="M0 0 C0.33 1.32 0.66 2.64 1 4 C1.66 4 2.32 4 3 4 C3.33 3.34 3.66 2.68 4 2 C3.67 5.63 3.34 9.26 3 13 C2.01 13.33 1.02 13.66 0 14 C0.33 11.36 0.66 8.72 1 6 C0.01 6.495 0.01 6.495 -1 7 C-0.67 4.69 -0.34 2.38 0 0 Z " fill="#9D9D9D" transform="translate(409,202)"/>
<path d="M0 0 C2.76223278 2.76223278 2.57856291 5.20706617 3 9 C2.67 8.34 2.34 7.68 2 7 C1.34 7 0.68 7 0 7 C-0.33 8.32 -0.66 9.64 -1 11 C-1.66 9.02 -2.32 7.04 -3 5 C-2.34 5 -1.68 5 -1 5 C-0.67 3.35 -0.34 1.7 0 0 Z " fill="#7B7B7B" transform="translate(265,193)"/>
<path d="M0 0 C0.66 0 1.32 0 2 0 C2 1.32 2 2.64 2 4 C4.64 4 7.28 4 10 4 C10 4.66 10 5.32 10 6 C6.7 6 3.4 6 0 6 C0 4.02 0 2.04 0 0 Z " fill="#050505" transform="translate(277,210)"/>
<path d="M0 0 C2.96865509 2.54456151 4.3619751 5.48994665 6 9 C6.99 8.34 7.98 7.68 9 7 C8.67 8.65 8.34 10.3 8 12 C7.01 12 6.02 12 5 12 C4.15885829 10.56705502 3.32734313 9.12845595 2.5 7.6875 C1.80390625 6.48673828 1.80390625 6.48673828 1.09375 5.26171875 C0 3 0 3 0 0 Z " fill="#DBBE44" transform="translate(168,121)"/>
<path d="M0 0 C6.6 0 13.2 0 20 0 C20.33 1.32 20.66 2.64 21 4 C20.01 3.67 19.02 3.34 18 3 C18 2.34 18 1.68 18 1 C12.06 1 6.12 1 0 1 C0 0.67 0 0.34 0 0 Z " fill="#D9BC2D" transform="translate(226,224)"/>
<path d="M0 0 C0.33 0 0.66 0 1 0 C1 2.64 1 5.28 1 8 C3.31 8 5.62 8 8 8 C8 9.32 8 10.64 8 12 C7.67 11.34 7.34 10.68 7 10 C5.5459375 10.0309375 5.5459375 10.0309375 4.0625 10.0625 C1 10 1 10 0 9 C-0.07179964 7.48071962 -0.08392007 5.95832518 -0.0625 4.4375 C-0.05347656 3.61121094 -0.04445313 2.78492188 -0.03515625 1.93359375 C-0.02355469 1.29550781 -0.01195312 0.65742188 0 0 Z " fill="#141414" transform="translate(320,196)"/>
<path d="M0 0 C1.9375 0.6875 1.9375 0.6875 4 2 C4.875 4.4375 4.875 4.4375 5 7 C4.01 8.485 4.01 8.485 3 10 C2.67 8.02 2.34 6.04 2 4 C1.34 5.32 0.68 6.64 0 8 C-0.66 6.35 -1.32 4.7 -2 3 C-1.34 2.34 -0.68 1.68 0 1 C0 0.67 0 0.34 0 0 Z " fill="#828282" transform="translate(288,193)"/>
<path d="M0 0 C1.06652192 2.30368736 2.06421005 4.64018187 3 7 C2.67 7.66 2.34 8.32 2 9 C0.68 7.02 -0.64 5.04 -2 3 C-2.99 3.66 -3.98 4.32 -5 5 C-5 3.68 -5 2.36 -5 1 C-3 0 -3 0 0 0 Z " fill="#E2C234" transform="translate(165,112)"/>
<path d="M0 0 C0.66 0 1.32 0 2 0 C2.33 2.31 2.66 4.62 3 7 C1.35 7.33 -0.3 7.66 -2 8 C-1.125 2.25 -1.125 2.25 0 0 Z " fill="#E4BE20" transform="translate(159,73)"/>
<path d="M0 0 C1.08784335 3.31395986 1.07262544 3.83580335 -0.4375 7.25 C-0.953125 8.1575 -1.46875 9.065 -2 10 C-2.66 10 -3.32 10 -4 10 C-4 10.99 -4 11.98 -4 13 C-4.66 13 -5.32 13 -6 13 C-4.31326082 8.50202887 -2.18326108 4.27113698 0 0 Z " fill="#DFC242" transform="translate(130,128)"/>
<path d="M0 0 C0.66 0 1.32 0 2 0 C3.6442351 4.93270529 2.18615592 7.54024193 0 12 C-0.33 12 -0.66 12 -1 12 C-0.67 8.04 -0.34 4.08 0 0 Z " fill="#DFC23D" transform="translate(183,108)"/>
<path d="M0 0 C0.66 0.33 1.32 0.66 2 1 C2.625 3.5625 2.625 3.5625 3 6 C2.01 5.67 1.02 5.34 0 5 C-0.33 5.99 -0.66 6.98 -1 8 C-2.0625 6.1875 -2.0625 6.1875 -3 4 C-2.67 3.01 -2.34 2.02 -2 1 C-1.67 1.33 -1.34 1.66 -1 2 C-0.67 1.34 -0.34 0.68 0 0 Z " fill="#7A7A7A" transform="translate(329,205)"/>
<path d="M0 0 C0.99 0 1.98 0 3 0 C3.66 1.98 4.32 3.96 5 6 C3.68 6.33 2.36 6.66 1 7 C0.67 4.69 0.34 2.38 0 0 Z " fill="#414141" transform="translate(347,200)"/>
<path d="M0 0 C0.33 1.32 0.66 2.64 1 4 C1.66 4 2.32 4 3 4 C3 3.34 3 2.68 3 2 C3.66 2 4.32 2 5 2 C4.38722388 4.96175123 3.74627478 6.38058783 2 9 C1.67 8.01 1.34 7.02 1 6 C0.01 6.495 0.01 6.495 -1 7 C-0.67 4.69 -0.34 2.38 0 0 Z " fill="#8F8F8F" transform="translate(342,195)"/>
<path d="M0 0 C0 0.33 0 0.66 0 1 C-1.65 1.33 -3.3 1.66 -5 2 C-3.68 2.66 -2.36 3.32 -1 4 C-2.32 4 -3.64 4 -5 4 C-5.33 4.66 -5.66 5.32 -6 6 C-6.66 5.01 -7.32 4.02 -8 3 C-8.66 2.67 -9.32 2.34 -10 2 C-6.3558226 -0.4294516 -4.28758728 -0.16179575 0 0 Z " fill="#8C8C8C" transform="translate(308,192)"/>
<path d="M0 0 C0.66 0 1.32 0 2 0 C1.34 1.98 0.68 3.96 0 6 C-0.99 6 -1.98 6 -3 6 C-3.33 6.99 -3.66 7.98 -4 9 C-4.33 8.34 -4.66 7.68 -5 7 C-3.6875 4.375 -3.6875 4.375 -2 2 C-1.34 2 -0.68 2 0 2 C0 1.34 0 0.68 0 0 Z " fill="#ECDC7D" transform="translate(107,171)"/>
<path d="M0 0 C2 3 2 3 2.5 5.625 C2.665 6.40875 2.83 7.1925 3 8 C3.66 8.33 4.32 8.66 5 9 C4.01 9.495 4.01 9.495 3 10 C0.375 9.0625 0.375 9.0625 -2 8 C-1.67 7.34 -1.34 6.68 -1 6 C-0.34 6.33 0.32 6.66 1 7 C0.67 4.69 0.34 2.38 0 0 Z " fill="#A0A0A0" transform="translate(270,208)"/>
<path d="M0 0 C1.65 0 3.3 0 5 0 C5 1.65 5 3.3 5 5 C3.35 5 1.7 5 0 5 C0 3.35 0 1.7 0 0 Z " fill="#3C3C3C" transform="translate(425,192)"/>
<path d="M0 0 C0.98120464 3.05263664 0.98120464 4.94736336 0 8 C0.99 7.67 1.98 7.34 3 7 C2.67 7.99 2.34 8.98 2 10 C0.68 10 -0.64 10 -2 10 C-1.54177532 6.53058454 -1.10868317 3.32604951 0 0 Z " fill="#8F8F8F" transform="translate(420,207)"/>
<path d="M0 0 C0.625 1.8125 0.625 1.8125 1 4 C0.01 5.485 0.01 5.485 -1 7 C-1.66 7 -2.32 7 -3 7 C-3 7.99 -3 8.98 -3 10 C-3.66 10 -4.32 10 -5 10 C-3.66511872 6.40608886 -2.03977277 3.24509304 0 0 Z " fill="#DDC23B" transform="translate(66,250)"/>
<path d="M0 0 C1.32 0 2.64 0 4 0 C4 1.65 4 3.3 4 5 C2.68 5 1.36 5 0 5 C0 3.35 0 1.7 0 0 Z " fill="#3C3C3C" transform="translate(182,202)"/>
<path d="M0 0 C0.66 0.33 1.32 0.66 2 1 C0.19587357 4.26460973 -0.83394693 5.88929795 -4 8 C-4 6.68 -4 5.36 -4 4 C-3.34 4 -2.68 4 -2 4 C-1.34 2.68 -0.68 1.36 0 0 Z " fill="#E7BD10" transform="translate(100,190)"/>
<path d="M0 0 C0.33 0 0.66 0 1 0 C1.625 2.875 1.625 2.875 2 6 C1.34 6.66 0.68 7.32 0 8 C-0.99 8 -1.98 8 -3 8 C-1.125 2.25 -1.125 2.25 0 0 Z " fill="#E2C130" transform="translate(144,101)"/>
<path d="M0 0 C1.65 0 3.3 0 5 0 C5 1.98 5 3.96 5 6 C4.34 6 3.68 6 3 6 C2.01 4.02 1.02 2.04 0 0 Z " fill="#222222" transform="translate(145,193)"/>
<path d="M0 0 C0.66 0 1.32 0 2 0 C1.01 2.97 0.02 5.94 -1 9 C-1.66 9 -2.32 9 -3 9 C-2.44271087 5.65626525 -1.64826111 2.96687001 0 0 Z " fill="#FCF5CA" transform="translate(141,152)"/>
<path d="M0 0 C0.66 0.33 1.32 0.66 2 1 C0.35 4.3 -1.3 7.6 -3 11 C-3.33 11 -3.66 11 -4 11 C-4.56638908 6.18569279 -2.82561627 3.79692186 0 0 Z " fill="#DBC135" transform="translate(158,117)"/>
<path d="M0 0 C0.33 0 0.66 0 1 0 C0.67 2.97 0.34 5.94 0 9 C-0.99 8.67 -1.98 8.34 -3 8 C-1.125 1.125 -1.125 1.125 0 0 Z " fill="#080808" transform="translate(424,201)"/>
<path d="M0 0 C1.65 0 3.3 0 5 0 C4.67 1.98 4.34 3.96 4 6 C3.34 5.01 2.68 4.02 2 3 C1.01 3.495 1.01 3.495 0 4 C0 2.68 0 1.36 0 0 Z " fill="#909090" transform="translate(412,192)"/>
<path d="M0 0 C0.33 0.66 0.66 1.32 1 2 C0.22265625 3.9453125 0.22265625 3.9453125 -0.9375 6.125 C-1.31777344 6.84945312 -1.69804687 7.57390625 -2.08984375 8.3203125 C-2.39019531 8.87460938 -2.69054687 9.42890625 -3 10 C-3.66 10 -4.32 10 -5 10 C-3.66511872 6.40608886 -2.03977277 3.24509304 0 0 Z " fill="#FBF3B5" transform="translate(182,120)"/>
<path d="M0 0 C0.33 0 0.66 0 1 0 C1 2.31 1 4.62 1 7 C0.34 7 -0.32 7 -1 7 C-1.33 7.66 -1.66 8.32 -2 9 C-1.125 1.125 -1.125 1.125 0 0 Z " fill="#0B0B0B" transform="translate(290,196)"/>
<path d="M0 0 C0.33 0 0.66 0 1 0 C1 2.31 1 4.62 1 7 C0.01 7.33 -0.98 7.66 -2 8 C-1.125 1.125 -1.125 1.125 0 0 Z " fill="#060606" transform="translate(332,196)"/>
<path d="M0 0 C1 3 1 3 0.22265625 4.82421875 C-0.8515625 6.54947917 -1.92578125 8.27473958 -3 10 C-4 7 -4 7 -2.625 3.875 C-1 1 -1 1 0 0 Z " fill="#FCF5C4" transform="translate(128,178)"/>
<path d="M0 0 C0.33 0 0.66 0 1 0 C1.20140476 3.62528568 0.85776765 5.86501708 -1 9 C-1.66 9 -2.32 9 -3 9 C-1.125 2.25 -1.125 2.25 0 0 Z " fill="#E0C435" transform="translate(104,177)"/>
<path d="M0 0 C-0.28875 0.556875 -0.5775 1.11375 -0.875 1.6875 C-2.0413253 4.08494645 -3.0339881 6.51596939 -4 9 C-5.10102197 5.69693408 -4.95067299 4.28414305 -4 1 C-2 0 -2 0 0 0 Z " fill="#DDC33E" transform="translate(129,176)"/>
<path d="M0 0 C0.99 0.495 0.99 0.495 2 1 C1.67 2.32 1.34 3.64 1 5 C0.67 3.35 0.34 1.7 0 0 Z " fill="#FFFFFF" transform="translate(396,196)"/>
<path d="M0 0 C0.99 1.485 0.99 1.485 2 3 C1.34 3 0.68 3 0 3 C0 2.01 0 1.02 0 0 Z " fill="#FFFFFF" transform="translate(215,210)"/>
<path d="M0 0 C0.66 0 1.32 0 2 0 C2 0.66 2 1.32 2 2 C1.34 2 0.68 2 0 2 C0 1.34 0 0.68 0 0 Z " fill="#FFFFFF" transform="translate(345,205)"/>
<path d="M0 0 C3 1 3 1 3 1 Z " fill="#FFFFFF" transform="translate(246,218)"/>
<path d="M0 0 C0.99 0.495 0.99 0.495 2 1 C1.01 1.495 1.01 1.495 0 2 C0 1.34 0 0.68 0 0 Z " fill="#FFFFFF" transform="translate(151,211)"/>
<path d="M0 0 C0.66 0.66 1.32 1.32 2 2 C1.34 2 0.68 2 0 2 C0 1.34 0 0.68 0 0 Z " fill="#FFFFFF" transform="translate(262,206)"/>
<path d="M0 0 C0.33 0.66 0.66 1.32 1 2 C0.34 1.67 -0.32 1.34 -1 1 C-0.67 0.67 -0.34 0.34 0 0 Z " fill="#FFFFFF" transform="translate(375,196)"/>
<path d="" fill="#FFFFFF" transform="translate(0,0)"/>
<path d="" fill="#FFFFFF" transform="translate(0,0)"/>
<path d="" fill="#FFFFFF" transform="translate(0,0)"/>
<path d="M0 0 C2 1 2 1 2 1 Z " fill="#FFFFFF" transform="translate(304,197)"/>
<path d="" fill="#FFFFFF" transform="translate(0,0)"/>
<path d="M0 0 C2 1 2 1 2 1 Z " fill="#FFFFFF" transform="translate(377,175)"/>
<path d="" fill="#FFFFFF" transform="translate(0,0)"/>
<path d="" fill="#FFFFFF" transform="translate(0,0)"/>
<path d="" fill="#FFFFFF" transform="translate(0,0)"/>
<path d="" fill="#FFFFFF" transform="translate(0,0)"/>
<path d="" fill="#FFFFFF" transform="translate(0,0)"/>
<path d="" fill="#FFFFFF" transform="translate(0,0)"/>
<path d="" fill="#FFFFFF" transform="translate(0,0)"/>
<path d="" fill="#FFFFFF" transform="translate(0,0)"/>
<path d="" fill="#FFFFFF" transform="translate(0,0)"/>
<path d="" fill="#FFFFFF" transform="translate(0,0)"/>
<path d="" fill="#FFFFFF" transform="translate(0,0)"/>
<path d="" fill="#FFFFFF" transform="translate(0,0)"/>
<path d="" fill="#FFFFFF" transform="translate(0,0)"/>
<path d="" fill="#FFFFFF" transform="translate(0,0)"/>
<path d="" fill="#FFFFFF" transform="translate(0,0)"/>
<path d="" fill="#FFFFFF" transform="translate(0,0)"/>
<path d="" fill="#FFFFFF" transform="translate(0,0)"/>
<path d="" fill="#FFFFFF" transform="translate(0,0)"/>
<path d="" fill="#FFFFFF" transform="translate(0,0)"/>
<path d="" fill="#FFFFFF" transform="translate(0,0)"/>
<path d="" fill="#FFFFFF" transform="translate(0,0)"/>
<path d="" fill="#FFFFFF" transform="translate(0,0)"/>
<path d="" fill="#FFFFFF" transform="translate(0,0)"/>
<path d="" fill="#FFFFFF" transform="translate(0,0)"/>
<path d="" fill="#FFFFFF" transform="translate(0,0)"/>
<path d="" fill="#FFFFFF" transform="translate(0,0)"/>
<path d="" fill="#FFFFFF" transform="translate(0,0)"/>
<path d="" fill="#FFFFFF" transform="translate(0,0)"/>
<path d="" fill="#FFFFFF" transform="translate(0,0)"/>
<path d="" fill="#FFFFFF" transform="translate(0,0)"/>
<path d="" fill="#FFFFFF" transform="translate(0,0)"/>
<path d="" fill="#FFFFFF" transform="translate(0,0)"/>
<path d="" fill="#FFFFFF" transform="translate(0,0)"/>
<path d="" fill="#FFFFFF" transform="translate(0,0)"/>
<path d="" fill="#FFFFFF" transform="translate(0,0)"/>
<path d="" fill="#FFFFFF" transform="translate(0,0)"/>
<path d="" fill="#FFFFFF" transform="translate(0,0)"/>
<path d="" fill="#FFFFFF" transform="translate(0,0)"/>
<path d="" fill="#FFFFFF" transform="translate(0,0)"/>
<path d="" fill="#FFFFFF" transform="translate(0,0)"/>
<path d="" fill="#FFFFFF" transform="translate(0,0)"/>
<path d="" fill="#FFFFFF" transform="translate(0,0)"/>
<path d="" fill="#FFFFFF" transform="translate(0,0)"/>
<path d="" fill="#FFFFFF" transform="translate(0,0)"/>
<path d="" fill="#FFFFFF" transform="translate(0,0)"/>
<path d="" fill="#FFFFFF" transform="translate(0,0)"/>
<path d="" fill="#FFFFFF" transform="translate(0,0)"/>
<path d="" fill="#FFFFFF" transform="translate(0,0)"/>
<path d="" fill="#FFFFFF" transform="translate(0,0)"/>
<path d="" fill="#FFFFFF" transform="translate(0,0)"/>
<path d="" fill="#FFFFFF" transform="translate(0,0)"/>
<path d="" fill="#FFFFFF" transform="translate(0,0)"/>
<path d="" fill="#FFFFFF" transform="translate(0,0)"/>
<path d="" fill="#FFFFFF" transform="translate(0,0)"/>
<path d="" fill="#FFFFFF" transform="translate(0,0)"/>
<path d="" fill="#FFFFFF" transform="translate(0,0)"/>
<path d="" fill="#FFFFFF" transform="translate(0,0)"/>
<path d="" fill="#FFFFFF" transform="translate(0,0)"/>
</svg>
