<?xml version="1.0" standalone="no"?>
<!DOCTYPE svg PUBLIC "-//W3C//DTD SVG 20010904//EN"
 "http://www.w3.org/TR/2001/REC-SVG-20010904/DTD/svg10.dtd">
<svg version="1.0" xmlns="http://www.w3.org/2000/svg"
 width="320.000000pt" height="320.000000pt" viewBox="0 0 320.000000 320.000000"
 preserveAspectRatio="xMidYMid meet">

<g transform="translate(0.000000,320.000000) scale(0.100000,-0.100000)"
fill="#000000" stroke="none">
<path d="M887 2050 c-390 -246 -708 -451 -708 -456 1 -5 321 -208 713 -450
l712 -442 40 26 c23 14 340 214 706 444 366 231 669 423 673 427 6 6 -1050
671 -1408 886 -18 11 -98 -37 -728 -435z m1330 -71 c334 -199 612 -365 616
-369 8 -7 -1211 -750 -1230 -750 -8 0 -1229 723 -1241 735 -5 4 1222 744 1235
745 6 0 285 -163 620 -361z"/>
<path d="M1523 2149 c-130 -25 -202 -127 -190 -270 13 -153 83 -229 287 -309
68 -27 122 -64 141 -97 42 -72 28 -202 -28 -255 -61 -58 -153 -73 -230 -39
-58 27 -93 84 -117 194 -6 23 -11 27 -43 27 l-36 0 6 -54 c16 -161 133 -270
287 -269 112 1 199 54 247 151 24 49 28 69 28 142 0 74 -3 91 -27 131 -34 58
-77 87 -217 149 -133 58 -174 87 -203 143 -46 91 -17 231 58 278 48 29 127 23
183 -14 41 -27 81 -90 81 -127 0 -17 6 -20 50 -20 45 0 50 2 50 23 0 37 -45
121 -81 151 -66 57 -161 81 -246 65z"/>
<path d="M1948 1863 c-2 -5 -2 -131 0 -280 l4 -273 169 0 169 0 0 25 0 26
-132 -3 -133 -3 0 110 0 110 118 3 117 3 0 24 0 25 -120 0 -120 0 0 95 0 95
135 0 135 0 0 25 0 25 -169 0 c-94 0 -171 -3 -173 -7z"/>
<path d="M850 1820 l0 -30 85 0 85 0 0 -255 0 -255 35 0 35 0 0 255 0 255 85
0 85 0 0 30 0 30 -205 0 -205 0 0 -30z"/>
</g>
</svg>
