<?xml version="1.0" encoding="UTF-8"?>
<svg width="200" height="200" viewBox="0 0 200 200" fill="none" xmlns="http://www.w3.org/2000/svg">
  <circle cx="100" cy="100" r="100" fill="#E5E7EB"/>
  <path d="M100 120C122.091 120 140 102.091 140 80C140 57.909 122.091 40 100 40C77.909 40 60 57.909 60 80C60 102.091 77.909 120 100 120Z" fill="#6B7280"/>
  <path d="M170 200C170 166.863 138.137 140 100 140C61.8629 140 30 166.863 30 200H170Z" fill="#6B7280"/>
  <path d="M100 95C110 95 120 90 120 80C120 70 110 60 100 60C90 60 80 70 80 80C80 90 90 95 100 95Z" fill="#E5E7EB"/>
</svg>
