<?xml version="1.0" encoding="UTF-8"?>
<svg width="200" height="200" viewBox="0 0 200 200" fill="none" xmlns="http://www.w3.org/2000/svg">
  <circle cx="100" cy="100" r="100" fill="#E5E7EB"/>
  <path d="M100 120C122.091 120 140 102.091 140 80C140 57.909 122.091 40 100 40C77.909 40 60 57.909 60 80C60 102.091 77.909 120 100 120Z" fill="#6B7280"/>
  <path d="M170 200C170 166.863 138.137 140 100 140C61.8629 140 30 166.863 30 200H170Z" fill="#6B7280"/>
  <path d="M100 105C112 105 122 95 122 80C122 65 112 55 100 55C88 55 78 65 78 80C78 95 88 105 100 105Z" fill="#E5E7EB"/>
</svg>
